# MagicaVoxel @ ephtracy

# material
mtllib missile.mtl
usemtl palette

# normals
vn -1 0 0
vn 1 0 0
vn 0 0 1
vn 0 0 -1
vn 0 -1 0
vn 0 1 0

# texcoords
vt 0.689453 0.5
vt 0.783203 0.5
vt 0.908203 0.5
vt 0.974609 0.5

# verts
v -15 0 0.5
v -15 0 -0.5
v -15 4 1.5
v -15 4 0.5
v -15 4 -0.5
v -15 4 -1.5
v -15 5 2.5
v -15 5 1.5
v -15 5 0.5
v -15 5 -0.5
v -15 5 -1.5
v -15 5 -2.5
v -15 6 6.5
v -15 6 2.5
v -15 6 1.5
v -15 6 0.5
v -15 6 -0.5
v -15 6 -1.5
v -15 6 -2.5
v -15 6 -6.5
v -15 7 6.5
v -15 7 2.5
v -15 7 1.5
v -15 7 0.5
v -15 7 -0.5
v -15 7 -1.5
v -15 7 -2.5
v -15 7 -6.5
v -15 8 2.5
v -15 8 1.5
v -15 8 0.5
v -15 8 -0.5
v -15 8 -1.5
v -15 8 -2.5
v -15 9 1.5
v -15 9 0.5
v -15 9 -0.5
v -15 9 -1.5
v -15 13 0.5
v -15 13 -0.5
v 4 1 0.5
v 4 1 -0.5
v 4 4 0.5
v 4 4 -0.5
v 4 6 5.5
v 4 6 2.5
v 4 6 -2.5
v 4 6 -5.5
v 4 7 5.5
v 4 7 2.5
v 4 7 -2.5
v 4 7 -5.5
v 4 9 0.5
v 4 9 -0.5
v 4 12 0.5
v 4 12 -0.5
v 9 1 0.5
v 9 1 -0.5
v 9 4 0.5
v 9 4 -0.5
v 9 6 5.5
v 9 6 2.5
v 9 6 -2.5
v 9 6 -5.5
v 9 7 5.5
v 9 7 2.5
v 9 7 -2.5
v 9 7 -5.5
v 9 9 0.5
v 9 9 -0.5
v 9 12 0.5
v 9 12 -0.5
v 12 6 0.5
v 12 6 -0.5
v 12 7 0.5
v 12 7 -0.5
v -14 0 0.5
v -14 0 -0.5
v -14 1 0.5
v -14 1 -0.5
v -14 6 6.5
v -14 6 5.5
v -14 6 -5.5
v -14 6 -6.5
v -14 7 6.5
v -14 7 5.5
v -14 7 -5.5
v -14 7 -6.5
v -14 12 0.5
v -14 12 -0.5
v -14 13 0.5
v -14 13 -0.5
v -13 1 0.5
v -13 1 -0.5
v -13 2 0.5
v -13 2 -0.5
v -13 6 5.5
v -13 6 4.5
v -13 6 -4.5
v -13 6 -5.5
v -13 7 5.5
v -13 7 4.5
v -13 7 -4.5
v -13 7 -5.5
v -13 11 0.5
v -13 11 -0.5
v -13 12 0.5
v -13 12 -0.5
v -12 2 0.5
v -12 2 -0.5
v -12 3 0.5
v -12 3 -0.5
v -12 6 4.5
v -12 6 3.5
v -12 6 -3.5
v -12 6 -4.5
v -12 7 4.5
v -12 7 3.5
v -12 7 -3.5
v -12 7 -4.5
v -12 10 0.5
v -12 10 -0.5
v -12 11 0.5
v -12 11 -0.5
v -11 3 0.5
v -11 3 -0.5
v -11 4 0.5
v -11 4 -0.5
v -11 6 3.5
v -11 6 2.5
v -11 6 -2.5
v -11 6 -3.5
v -11 7 3.5
v -11 7 2.5
v -11 7 -2.5
v -11 7 -3.5
v -11 9 0.5
v -11 9 -0.5
v -11 10 0.5
v -11 10 -0.5
v 5 1 0.5
v 5 1 -0.5
v 5 2 0.5
v 5 2 -0.5
v 5 6 5.5
v 5 6 4.5
v 5 6 -4.5
v 5 6 -5.5
v 5 7 5.5
v 5 7 4.5
v 5 7 -4.5
v 5 7 -5.5
v 5 11 0.5
v 5 11 -0.5
v 5 12 0.5
v 5 12 -0.5
v 6 2 0.5
v 6 2 -0.5
v 6 3 0.5
v 6 3 -0.5
v 6 6 4.5
v 6 6 3.5
v 6 6 -3.5
v 6 6 -4.5
v 6 7 4.5
v 6 7 3.5
v 6 7 -3.5
v 6 7 -4.5
v 6 10 0.5
v 6 10 -0.5
v 6 11 0.5
v 6 11 -0.5
v 7 3 0.5
v 7 3 -0.5
v 7 4 0.5
v 7 4 -0.5
v 7 6 3.5
v 7 6 2.5
v 7 6 -2.5
v 7 6 -3.5
v 7 7 3.5
v 7 7 2.5
v 7 7 -2.5
v 7 7 -3.5
v 7 9 0.5
v 7 9 -0.5
v 7 10 0.5
v 7 10 -0.5
v 10 1 0.5
v 10 1 -0.5
v 10 2 0.5
v 10 2 -0.5
v 10 6 5.5
v 10 6 4.5
v 10 6 -4.5
v 10 6 -5.5
v 10 7 5.5
v 10 7 4.5
v 10 7 -4.5
v 10 7 -5.5
v 10 11 0.5
v 10 11 -0.5
v 10 12 0.5
v 10 12 -0.5
v 11 2 0.5
v 11 2 -0.5
v 11 3 0.5
v 11 3 -0.5
v 11 6 4.5
v 11 6 3.5
v 11 6 -3.5
v 11 6 -4.5
v 11 7 4.5
v 11 7 3.5
v 11 7 -3.5
v 11 7 -4.5
v 11 10 0.5
v 11 10 -0.5
v 11 11 0.5
v 11 11 -0.5
v 12 3 0.5
v 12 3 -0.5
v 12 4 0.5
v 12 4 -0.5
v 12 6 3.5
v 12 6 2.5
v 12 6 -2.5
v 12 6 -3.5
v 12 7 3.5
v 12 7 2.5
v 12 7 -2.5
v 12 7 -3.5
v 12 9 0.5
v 12 9 -0.5
v 12 10 0.5
v 12 10 -0.5
v 13 4 1.5
v 13 4 -1.5
v 13 5 2.5
v 13 5 1.5
v 13 5 -1.5
v 13 5 -2.5
v 13 8 2.5
v 13 8 1.5
v 13 8 -1.5
v 13 8 -2.5
v 13 9 1.5
v 13 9 -1.5
v 14 5 1.5
v 14 5 -1.5
v 14 6 0.5
v 14 6 -0.5
v 14 7 0.5
v 14 7 -0.5
v 14 8 1.5
v 14 8 -1.5
v 15 6 0.5
v 15 6 -0.5
v 15 7 0.5
v 15 7 -0.5
v -15 6 6.5
v -15 7 6.5
v -14 6 6.5
v -14 7 6.5
v -14 6 5.5
v -14 7 5.5
v -13 6 5.5
v -13 7 5.5
v 4 6 5.5
v 4 7 5.5
v 5 6 5.5
v 5 7 5.5
v 9 6 5.5
v 9 7 5.5
v 10 6 5.5
v 10 7 5.5
v -13 6 4.5
v -13 7 4.5
v -12 6 4.5
v -12 7 4.5
v 5 6 4.5
v 5 7 4.5
v 6 6 4.5
v 6 7 4.5
v 10 6 4.5
v 10 7 4.5
v 11 6 4.5
v 11 7 4.5
v -12 6 3.5
v -12 7 3.5
v -11 6 3.5
v -11 7 3.5
v 6 6 3.5
v 6 7 3.5
v 7 6 3.5
v 7 7 3.5
v 11 6 3.5
v 11 7 3.5
v 12 6 3.5
v 12 7 3.5
v -15 5 2.5
v -15 6 2.5
v -15 7 2.5
v -15 8 2.5
v -11 6 2.5
v -11 7 2.5
v 4 6 2.5
v 4 7 2.5
v 7 6 2.5
v 7 7 2.5
v 9 6 2.5
v 9 7 2.5
v 12 6 2.5
v 12 7 2.5
v 13 5 2.5
v 13 8 2.5
v -15 4 1.5
v -15 5 1.5
v -15 8 1.5
v -15 9 1.5
v 13 4 1.5
v 13 5 1.5
v 13 8 1.5
v 13 9 1.5
v 14 5 1.5
v 14 8 1.5
v -15 0 0.5
v -15 4 0.5
v -15 9 0.5
v -15 13 0.5
v -14 0 0.5
v -14 1 0.5
v -14 12 0.5
v -14 13 0.5
v -13 1 0.5
v -13 2 0.5
v -13 11 0.5
v -13 12 0.5
v -12 2 0.5
v -12 3 0.5
v -12 10 0.5
v -12 11 0.5
v -11 3 0.5
v -11 4 0.5
v -11 9 0.5
v -11 10 0.5
v 4 1 0.5
v 4 4 0.5
v 4 9 0.5
v 4 12 0.5
v 5 1 0.5
v 5 2 0.5
v 5 11 0.5
v 5 12 0.5
v 6 2 0.5
v 6 3 0.5
v 6 10 0.5
v 6 11 0.5
v 7 3 0.5
v 7 4 0.5
v 7 9 0.5
v 7 10 0.5
v 9 1 0.5
v 9 4 0.5
v 9 9 0.5
v 9 12 0.5
v 10 1 0.5
v 10 2 0.5
v 10 11 0.5
v 10 12 0.5
v 11 2 0.5
v 11 3 0.5
v 11 10 0.5
v 11 11 0.5
v 12 3 0.5
v 12 4 0.5
v 12 9 0.5
v 12 10 0.5
v 14 6 0.5
v 14 7 0.5
v 15 6 0.5
v 15 7 0.5
v -15 6 -0.5
v -15 7 -0.5
v 12 6 -0.5
v 12 7 -0.5
v -15 6 0.5
v -15 7 0.5
v 12 6 0.5
v 12 7 0.5
v -15 0 -0.5
v -15 4 -0.5
v -15 9 -0.5
v -15 13 -0.5
v -14 0 -0.5
v -14 1 -0.5
v -14 12 -0.5
v -14 13 -0.5
v -13 1 -0.5
v -13 2 -0.5
v -13 11 -0.5
v -13 12 -0.5
v -12 2 -0.5
v -12 3 -0.5
v -12 10 -0.5
v -12 11 -0.5
v -11 3 -0.5
v -11 4 -0.5
v -11 9 -0.5
v -11 10 -0.5
v 4 1 -0.5
v 4 4 -0.5
v 4 9 -0.5
v 4 12 -0.5
v 5 1 -0.5
v 5 2 -0.5
v 5 11 -0.5
v 5 12 -0.5
v 6 2 -0.5
v 6 3 -0.5
v 6 10 -0.5
v 6 11 -0.5
v 7 3 -0.5
v 7 4 -0.5
v 7 9 -0.5
v 7 10 -0.5
v 9 1 -0.5
v 9 4 -0.5
v 9 9 -0.5
v 9 12 -0.5
v 10 1 -0.5
v 10 2 -0.5
v 10 11 -0.5
v 10 12 -0.5
v 11 2 -0.5
v 11 3 -0.5
v 11 10 -0.5
v 11 11 -0.5
v 12 3 -0.5
v 12 4 -0.5
v 12 9 -0.5
v 12 10 -0.5
v 14 6 -0.5
v 14 7 -0.5
v 15 6 -0.5
v 15 7 -0.5
v -15 4 -1.5
v -15 5 -1.5
v -15 8 -1.5
v -15 9 -1.5
v 13 4 -1.5
v 13 5 -1.5
v 13 8 -1.5
v 13 9 -1.5
v 14 5 -1.5
v 14 8 -1.5
v -15 5 -2.5
v -15 6 -2.5
v -15 7 -2.5
v -15 8 -2.5
v -11 6 -2.5
v -11 7 -2.5
v 4 6 -2.5
v 4 7 -2.5
v 7 6 -2.5
v 7 7 -2.5
v 9 6 -2.5
v 9 7 -2.5
v 12 6 -2.5
v 12 7 -2.5
v 13 5 -2.5
v 13 8 -2.5
v -12 6 -3.5
v -12 7 -3.5
v -11 6 -3.5
v -11 7 -3.5
v 6 6 -3.5
v 6 7 -3.5
v 7 6 -3.5
v 7 7 -3.5
v 11 6 -3.5
v 11 7 -3.5
v 12 6 -3.5
v 12 7 -3.5
v -13 6 -4.5
v -13 7 -4.5
v -12 6 -4.5
v -12 7 -4.5
v 5 6 -4.5
v 5 7 -4.5
v 6 6 -4.5
v 6 7 -4.5
v 10 6 -4.5
v 10 7 -4.5
v 11 6 -4.5
v 11 7 -4.5
v -14 6 -5.5
v -14 7 -5.5
v -13 6 -5.5
v -13 7 -5.5
v 4 6 -5.5
v 4 7 -5.5
v 5 6 -5.5
v 5 7 -5.5
v 9 6 -5.5
v 9 7 -5.5
v 10 6 -5.5
v 10 7 -5.5
v -15 6 -6.5
v -15 7 -6.5
v -14 6 -6.5
v -14 7 -6.5
v -15 0 0.5
v -14 0 0.5
v -15 0 -0.5
v -14 0 -0.5
v -14 1 0.5
v -13 1 0.5
v 4 1 0.5
v 5 1 0.5
v 9 1 0.5
v 10 1 0.5
v -14 1 -0.5
v -13 1 -0.5
v 4 1 -0.5
v 5 1 -0.5
v 9 1 -0.5
v 10 1 -0.5
v -13 2 0.5
v -12 2 0.5
v 5 2 0.5
v 6 2 0.5
v 10 2 0.5
v 11 2 0.5
v -13 2 -0.5
v -12 2 -0.5
v 5 2 -0.5
v 6 2 -0.5
v 10 2 -0.5
v 11 2 -0.5
v -12 3 0.5
v -11 3 0.5
v 6 3 0.5
v 7 3 0.5
v 11 3 0.5
v 12 3 0.5
v -12 3 -0.5
v -11 3 -0.5
v 6 3 -0.5
v 7 3 -0.5
v 11 3 -0.5
v 12 3 -0.5
v -15 4 1.5
v 13 4 1.5
v -15 4 0.5
v -11 4 0.5
v 4 4 0.5
v 7 4 0.5
v 9 4 0.5
v 12 4 0.5
v -15 4 -0.5
v -11 4 -0.5
v 4 4 -0.5
v 7 4 -0.5
v 9 4 -0.5
v 12 4 -0.5
v -15 4 -1.5
v 13 4 -1.5
v -15 5 2.5
v 13 5 2.5
v -15 5 1.5
v 13 5 1.5
v 14 5 1.5
v -15 5 -1.5
v 13 5 -1.5
v 14 5 -1.5
v -15 5 -2.5
v 13 5 -2.5
v -15 6 6.5
v -14 6 6.5
v -14 6 5.5
v -13 6 5.5
v 4 6 5.5
v 5 6 5.5
v 9 6 5.5
v 10 6 5.5
v -13 6 4.5
v -12 6 4.5
v 5 6 4.5
v 6 6 4.5
v 10 6 4.5
v 11 6 4.5
v -12 6 3.5
v -11 6 3.5
v 6 6 3.5
v 7 6 3.5
v 11 6 3.5
v 12 6 3.5
v -15 6 2.5
v -11 6 2.5
v 4 6 2.5
v 7 6 2.5
v 9 6 2.5
v 12 6 2.5
v 14 6 0.5
v 15 6 0.5
v 14 6 -0.5
v 15 6 -0.5
v -15 6 -2.5
v -11 6 -2.5
v 4 6 -2.5
v 7 6 -2.5
v 9 6 -2.5
v 12 6 -2.5
v -12 6 -3.5
v -11 6 -3.5
v 6 6 -3.5
v 7 6 -3.5
v 11 6 -3.5
v 12 6 -3.5
v -13 6 -4.5
v -12 6 -4.5
v 5 6 -4.5
v 6 6 -4.5
v 10 6 -4.5
v 11 6 -4.5
v -14 6 -5.5
v -13 6 -5.5
v 4 6 -5.5
v 5 6 -5.5
v 9 6 -5.5
v 10 6 -5.5
v -15 6 -6.5
v -14 6 -6.5
v -15 7 0.5
v 12 7 0.5
v -15 7 -0.5
v 12 7 -0.5
v -15 6 0.5
v 12 6 0.5
v -15 6 -0.5
v 12 6 -0.5
v -15 7 6.5
v -14 7 6.5
v -14 7 5.5
v -13 7 5.5
v 4 7 5.5
v 5 7 5.5
v 9 7 5.5
v 10 7 5.5
v -13 7 4.5
v -12 7 4.5
v 5 7 4.5
v 6 7 4.5
v 10 7 4.5
v 11 7 4.5
v -12 7 3.5
v -11 7 3.5
v 6 7 3.5
v 7 7 3.5
v 11 7 3.5
v 12 7 3.5
v -15 7 2.5
v -11 7 2.5
v 4 7 2.5
v 7 7 2.5
v 9 7 2.5
v 12 7 2.5
v 14 7 0.5
v 15 7 0.5
v 14 7 -0.5
v 15 7 -0.5
v -15 7 -2.5
v -11 7 -2.5
v 4 7 -2.5
v 7 7 -2.5
v 9 7 -2.5
v 12 7 -2.5
v -12 7 -3.5
v -11 7 -3.5
v 6 7 -3.5
v 7 7 -3.5
v 11 7 -3.5
v 12 7 -3.5
v -13 7 -4.5
v -12 7 -4.5
v 5 7 -4.5
v 6 7 -4.5
v 10 7 -4.5
v 11 7 -4.5
v -14 7 -5.5
v -13 7 -5.5
v 4 7 -5.5
v 5 7 -5.5
v 9 7 -5.5
v 10 7 -5.5
v -15 7 -6.5
v -14 7 -6.5
v -15 8 2.5
v 13 8 2.5
v -15 8 1.5
v 13 8 1.5
v 14 8 1.5
v -15 8 -1.5
v 13 8 -1.5
v 14 8 -1.5
v -15 8 -2.5
v 13 8 -2.5
v -15 9 1.5
v 13 9 1.5
v -15 9 0.5
v -11 9 0.5
v 4 9 0.5
v 7 9 0.5
v 9 9 0.5
v 12 9 0.5
v -15 9 -0.5
v -11 9 -0.5
v 4 9 -0.5
v 7 9 -0.5
v 9 9 -0.5
v 12 9 -0.5
v -15 9 -1.5
v 13 9 -1.5
v -12 10 0.5
v -11 10 0.5
v 6 10 0.5
v 7 10 0.5
v 11 10 0.5
v 12 10 0.5
v -12 10 -0.5
v -11 10 -0.5
v 6 10 -0.5
v 7 10 -0.5
v 11 10 -0.5
v 12 10 -0.5
v -13 11 0.5
v -12 11 0.5
v 5 11 0.5
v 6 11 0.5
v 10 11 0.5
v 11 11 0.5
v -13 11 -0.5
v -12 11 -0.5
v 5 11 -0.5
v 6 11 -0.5
v 10 11 -0.5
v 11 11 -0.5
v -14 12 0.5
v -13 12 0.5
v 4 12 0.5
v 5 12 0.5
v 9 12 0.5
v 10 12 0.5
v -14 12 -0.5
v -13 12 -0.5
v 4 12 -0.5
v 5 12 -0.5
v 9 12 -0.5
v 10 12 -0.5
v -15 13 0.5
v -14 13 0.5
v -15 13 -0.5
v -14 13 -0.5

# faces
f 4/2/1 2/2/1 1/2/1
f 5/2/1 2/2/1 4/2/1
f 8/3/1 4/3/1 3/3/1
f 9/4/1 5/4/1 4/4/1
f 9/3/1 4/3/1 8/3/1
f 10/3/1 6/3/1 5/3/1
f 10/4/1 5/4/1 9/4/1
f 11/3/1 6/3/1 10/3/1
f 14/3/1 8/3/1 7/3/1
f 15/4/1 9/4/1 8/4/1
f 15/4/1 10/4/1 9/4/1
f 15/3/1 8/3/1 14/3/1
f 15/4/1 11/4/1 10/4/1
f 16/4/1 11/4/1 15/4/1
f 17/4/1 11/4/1 16/4/1
f 18/3/1 12/3/1 11/3/1
f 18/4/1 11/4/1 17/4/1
f 19/3/1 12/3/1 18/3/1
f 21/2/1 14/2/1 13/2/1
f 22/4/1 15/4/1 14/4/1
f 22/2/1 14/2/1 21/2/1
f 22/4/1 16/4/1 15/4/1
f 23/4/1 16/4/1 22/4/1
f 24/4/1 16/4/1 23/4/1
f 25/4/1 19/4/1 18/4/1
f 25/4/1 18/4/1 17/4/1
f 26/4/1 19/4/1 25/4/1
f 27/2/1 20/2/1 19/2/1
f 27/4/1 19/4/1 26/4/1
f 28/2/1 20/2/1 27/2/1
f 29/3/1 23/3/1 22/3/1
f 30/4/1 26/4/1 25/4/1
f 30/3/1 23/3/1 29/3/1
f 30/4/1 24/4/1 23/4/1
f 30/4/1 25/4/1 24/4/1
f 31/4/1 26/4/1 30/4/1
f 32/4/1 26/4/1 31/4/1
f 33/3/1 27/3/1 26/3/1
f 33/4/1 26/4/1 32/4/1
f 34/3/1 27/3/1 33/3/1
f 35/3/1 31/3/1 30/3/1
f 36/4/1 32/4/1 31/4/1
f 36/3/1 31/3/1 35/3/1
f 37/3/1 33/3/1 32/3/1
f 37/4/1 32/4/1 36/4/1
f 38/3/1 33/3/1 37/3/1
f 39/2/1 37/2/1 36/2/1
f 40/2/1 37/2/1 39/2/1
f 43/2/1 42/2/1 41/2/1
f 44/2/1 42/2/1 43/2/1
f 49/2/1 46/2/1 45/2/1
f 50/2/1 46/2/1 49/2/1
f 51/2/1 48/2/1 47/2/1
f 52/2/1 48/2/1 51/2/1
f 55/2/1 54/2/1 53/2/1
f 56/2/1 54/2/1 55/2/1
f 59/2/1 58/2/1 57/2/1
f 60/2/1 58/2/1 59/2/1
f 65/2/1 62/2/1 61/2/1
f 66/2/1 62/2/1 65/2/1
f 67/2/1 64/2/1 63/2/1
f 68/2/1 64/2/1 67/2/1
f 71/2/1 70/2/1 69/2/1
f 72/2/1 70/2/1 71/2/1
f 75/4/1 74/4/1 73/4/1
f 76/4/1 74/4/1 75/4/1
f 77/2/2 78/2/2 79/2/2
f 79/2/2 78/2/2 80/2/2
f 81/2/2 82/2/2 85/2/2
f 85/2/2 82/2/2 86/2/2
f 83/2/2 84/2/2 87/2/2
f 87/2/2 84/2/2 88/2/2
f 89/2/2 90/2/2 91/2/2
f 91/2/2 90/2/2 92/2/2
f 93/2/2 94/2/2 95/2/2
f 95/2/2 94/2/2 96/2/2
f 97/2/2 98/2/2 101/2/2
f 101/2/2 98/2/2 102/2/2
f 99/2/2 100/2/2 103/2/2
f 103/2/2 100/2/2 104/2/2
f 105/2/2 106/2/2 107/2/2
f 107/2/2 106/2/2 108/2/2
f 109/2/2 110/2/2 111/2/2
f 111/2/2 110/2/2 112/2/2
f 113/2/2 114/2/2 117/2/2
f 117/2/2 114/2/2 118/2/2
f 115/2/2 116/2/2 119/2/2
f 119/2/2 116/2/2 120/2/2
f 121/2/2 122/2/2 123/2/2
f 123/2/2 122/2/2 124/2/2
f 125/2/2 126/2/2 127/2/2
f 127/2/2 126/2/2 128/2/2
f 129/2/2 130/2/2 133/2/2
f 133/2/2 130/2/2 134/2/2
f 131/2/2 132/2/2 135/2/2
f 135/2/2 132/2/2 136/2/2
f 137/2/2 138/2/2 139/2/2
f 139/2/2 138/2/2 140/2/2
f 141/2/2 142/2/2 143/2/2
f 143/2/2 142/2/2 144/2/2
f 145/2/2 146/2/2 149/2/2
f 149/2/2 146/2/2 150/2/2
f 147/2/2 148/2/2 151/2/2
f 151/2/2 148/2/2 152/2/2
f 153/2/2 154/2/2 155/2/2
f 155/2/2 154/2/2 156/2/2
f 157/2/2 158/2/2 159/2/2
f 159/2/2 158/2/2 160/2/2
f 161/2/2 162/2/2 165/2/2
f 165/2/2 162/2/2 166/2/2
f 163/2/2 164/2/2 167/2/2
f 167/2/2 164/2/2 168/2/2
f 169/2/2 170/2/2 171/2/2
f 171/2/2 170/2/2 172/2/2
f 173/2/2 174/2/2 175/2/2
f 175/2/2 174/2/2 176/2/2
f 177/2/2 178/2/2 181/2/2
f 181/2/2 178/2/2 182/2/2
f 179/2/2 180/2/2 183/2/2
f 183/2/2 180/2/2 184/2/2
f 185/2/2 186/2/2 187/2/2
f 187/2/2 186/2/2 188/2/2
f 189/2/2 190/2/2 191/2/2
f 191/2/2 190/2/2 192/2/2
f 193/2/2 194/2/2 197/2/2
f 197/2/2 194/2/2 198/2/2
f 195/2/2 196/2/2 199/2/2
f 199/2/2 196/2/2 200/2/2
f 201/2/2 202/2/2 203/2/2
f 203/2/2 202/2/2 204/2/2
f 205/2/2 206/2/2 207/2/2
f 207/2/2 206/2/2 208/2/2
f 209/2/2 210/2/2 213/2/2
f 213/2/2 210/2/2 214/2/2
f 211/2/2 212/2/2 215/2/2
f 215/2/2 212/2/2 216/2/2
f 217/2/2 218/2/2 219/2/2
f 219/2/2 218/2/2 220/2/2
f 221/2/2 222/2/2 223/2/2
f 223/2/2 222/2/2 224/2/2
f 225/2/2 226/2/2 229/2/2
f 229/2/2 226/2/2 230/2/2
f 227/2/2 228/2/2 231/2/2
f 231/2/2 228/2/2 232/2/2
f 233/2/2 234/2/2 235/2/2
f 235/2/2 234/2/2 236/2/2
f 237/3/2 238/3/2 240/3/2
f 240/3/2 238/3/2 241/3/2
f 239/3/2 240/3/2 243/3/2
f 243/3/2 240/3/2 244/3/2
f 241/3/2 242/3/2 245/3/2
f 245/3/2 242/3/2 246/3/2
f 244/3/2 245/3/2 247/3/2
f 247/3/2 245/3/2 248/3/2
f 249/2/2 250/2/2 251/2/2
f 251/2/2 250/2/2 252/2/2
f 249/2/2 251/2/2 253/2/2
f 252/2/2 250/2/2 254/2/2
f 249/2/2 253/2/2 255/2/2
f 253/2/2 254/2/2 255/2/2
f 254/2/2 250/2/2 256/2/2
f 255/2/2 254/2/2 256/2/2
f 257/1/2 258/1/2 259/1/2
f 259/1/2 258/1/2 260/1/2
f 263/2/3 262/2/3 261/2/3
f 264/2/3 262/2/3 263/2/3
f 267/2/3 266/2/3 265/2/3
f 268/2/3 266/2/3 267/2/3
f 271/2/3 270/2/3 269/2/3
f 272/2/3 270/2/3 271/2/3
f 275/2/3 274/2/3 273/2/3
f 276/2/3 274/2/3 275/2/3
f 279/2/3 278/2/3 277/2/3
f 280/2/3 278/2/3 279/2/3
f 283/2/3 282/2/3 281/2/3
f 284/2/3 282/2/3 283/2/3
f 287/2/3 286/2/3 285/2/3
f 288/2/3 286/2/3 287/2/3
f 291/2/3 290/2/3 289/2/3
f 292/2/3 290/2/3 291/2/3
f 295/2/3 294/2/3 293/2/3
f 296/2/3 294/2/3 295/2/3
f 299/2/3 298/2/3 297/2/3
f 300/2/3 298/2/3 299/2/3
f 305/3/3 302/3/3 301/3/3
f 306/3/3 304/3/3 303/3/3
f 307/3/3 305/3/3 301/3/3
f 307/3/3 306/3/3 305/3/3
f 308/3/3 304/3/3 306/3/3
f 308/3/3 306/3/3 307/3/3
f 309/3/3 307/3/3 301/3/3
f 310/3/3 304/3/3 308/3/3
f 311/3/3 309/3/3 301/3/3
f 311/3/3 310/3/3 309/3/3
f 312/3/3 304/3/3 310/3/3
f 312/3/3 310/3/3 311/3/3
f 313/3/3 311/3/3 301/3/3
f 314/3/3 304/3/3 312/3/3
f 315/3/3 313/3/3 301/3/3
f 315/3/3 314/3/3 313/3/3
f 316/3/3 304/3/3 314/3/3
f 316/3/3 314/3/3 315/3/3
f 321/3/3 318/3/3 317/3/3
f 322/3/3 318/3/3 321/3/3
f 323/3/3 320/3/3 319/3/3
f 324/3/3 320/3/3 323/3/3
f 325/2/3 323/2/3 322/2/3
f 326/2/3 323/2/3 325/2/3
f 331/2/3 328/2/3 327/2/3
f 332/2/3 328/2/3 331/2/3
f 333/2/3 330/2/3 329/2/3
f 334/2/3 330/2/3 333/2/3
f 335/2/3 328/2/3 332/2/3
f 336/2/3 328/2/3 335/2/3
f 337/2/3 333/2/3 329/2/3
f 338/2/3 333/2/3 337/2/3
f 339/2/3 328/2/3 336/2/3
f 340/2/3 328/2/3 339/2/3
f 341/2/3 337/2/3 329/2/3
f 342/2/3 337/2/3 341/2/3
f 343/2/3 328/2/3 340/2/3
f 344/2/3 328/2/3 343/2/3
f 345/2/3 341/2/3 329/2/3
f 346/2/3 341/2/3 345/2/3
f 351/2/3 348/2/3 347/2/3
f 352/2/3 348/2/3 351/2/3
f 353/2/3 350/2/3 349/2/3
f 354/2/3 350/2/3 353/2/3
f 355/2/3 348/2/3 352/2/3
f 356/2/3 348/2/3 355/2/3
f 357/2/3 353/2/3 349/2/3
f 358/2/3 353/2/3 357/2/3
f 359/2/3 348/2/3 356/2/3
f 360/2/3 348/2/3 359/2/3
f 361/2/3 357/2/3 349/2/3
f 362/2/3 357/2/3 361/2/3
f 367/2/3 364/2/3 363/2/3
f 368/2/3 364/2/3 367/2/3
f 369/2/3 366/2/3 365/2/3
f 370/2/3 366/2/3 369/2/3
f 371/2/3 364/2/3 368/2/3
f 372/2/3 364/2/3 371/2/3
f 373/2/3 369/2/3 365/2/3
f 374/2/3 369/2/3 373/2/3
f 375/2/3 364/2/3 372/2/3
f 376/2/3 364/2/3 375/2/3
f 377/2/3 373/2/3 365/2/3
f 378/2/3 373/2/3 377/2/3
f 381/1/3 380/1/3 379/1/3
f 382/1/3 380/1/3 381/1/3
f 385/4/3 384/4/3 383/4/3
f 386/4/3 384/4/3 385/4/3
f 387/4/4 388/4/4 389/4/4
f 389/4/4 388/4/4 390/4/4
f 391/2/4 392/2/4 395/2/4
f 395/2/4 392/2/4 396/2/4
f 393/2/4 394/2/4 397/2/4
f 397/2/4 394/2/4 398/2/4
f 396/2/4 392/2/4 399/2/4
f 399/2/4 392/2/4 400/2/4
f 393/2/4 397/2/4 401/2/4
f 401/2/4 397/2/4 402/2/4
f 400/2/4 392/2/4 403/2/4
f 403/2/4 392/2/4 404/2/4
f 393/2/4 401/2/4 405/2/4
f 405/2/4 401/2/4 406/2/4
f 404/2/4 392/2/4 407/2/4
f 407/2/4 392/2/4 408/2/4
f 393/2/4 405/2/4 409/2/4
f 409/2/4 405/2/4 410/2/4
f 411/2/4 412/2/4 415/2/4
f 415/2/4 412/2/4 416/2/4
f 413/2/4 414/2/4 417/2/4
f 417/2/4 414/2/4 418/2/4
f 416/2/4 412/2/4 419/2/4
f 419/2/4 412/2/4 420/2/4
f 413/2/4 417/2/4 421/2/4
f 421/2/4 417/2/4 422/2/4
f 420/2/4 412/2/4 423/2/4
f 423/2/4 412/2/4 424/2/4
f 413/2/4 421/2/4 425/2/4
f 425/2/4 421/2/4 426/2/4
f 427/2/4 428/2/4 431/2/4
f 431/2/4 428/2/4 432/2/4
f 429/2/4 430/2/4 433/2/4
f 433/2/4 430/2/4 434/2/4
f 432/2/4 428/2/4 435/2/4
f 435/2/4 428/2/4 436/2/4
f 429/2/4 433/2/4 437/2/4
f 437/2/4 433/2/4 438/2/4
f 436/2/4 428/2/4 439/2/4
f 439/2/4 428/2/4 440/2/4
f 429/2/4 437/2/4 441/2/4
f 441/2/4 437/2/4 442/2/4
f 443/1/4 444/1/4 445/1/4
f 445/1/4 444/1/4 446/1/4
f 447/3/4 448/3/4 451/3/4
f 451/3/4 448/3/4 452/3/4
f 449/3/4 450/3/4 453/3/4
f 453/3/4 450/3/4 454/3/4
f 452/2/4 453/2/4 455/2/4
f 455/2/4 453/2/4 456/2/4
f 457/3/4 458/3/4 461/3/4
f 459/3/4 460/3/4 462/3/4
f 457/3/4 461/3/4 463/3/4
f 461/3/4 462/3/4 463/3/4
f 462/3/4 460/3/4 464/3/4
f 463/3/4 462/3/4 464/3/4
f 457/3/4 463/3/4 465/3/4
f 464/3/4 460/3/4 466/3/4
f 457/3/4 465/3/4 467/3/4
f 465/3/4 466/3/4 467/3/4
f 466/3/4 460/3/4 468/3/4
f 467/3/4 466/3/4 468/3/4
f 457/3/4 467/3/4 469/3/4
f 468/3/4 460/3/4 470/3/4
f 457/3/4 469/3/4 471/3/4
f 469/3/4 470/3/4 471/3/4
f 470/3/4 460/3/4 472/3/4
f 471/3/4 470/3/4 472/3/4
f 473/2/4 474/2/4 475/2/4
f 475/2/4 474/2/4 476/2/4
f 477/2/4 478/2/4 479/2/4
f 479/2/4 478/2/4 480/2/4
f 481/2/4 482/2/4 483/2/4
f 483/2/4 482/2/4 484/2/4
f 485/2/4 486/2/4 487/2/4
f 487/2/4 486/2/4 488/2/4
f 489/2/4 490/2/4 491/2/4
f 491/2/4 490/2/4 492/2/4
f 493/2/4 494/2/4 495/2/4
f 495/2/4 494/2/4 496/2/4
f 497/2/4 498/2/4 499/2/4
f 499/2/4 498/2/4 500/2/4
f 501/2/4 502/2/4 503/2/4
f 503/2/4 502/2/4 504/2/4
f 505/2/4 506/2/4 507/2/4
f 507/2/4 506/2/4 508/2/4
f 509/2/4 510/2/4 511/2/4
f 511/2/4 510/2/4 512/2/4
f 515/2/5 514/2/5 513/2/5
f 516/2/5 514/2/5 515/2/5
f 523/2/5 518/2/5 517/2/5
f 524/2/5 518/2/5 523/2/5
f 525/2/5 520/2/5 519/2/5
f 526/2/5 520/2/5 525/2/5
f 527/2/5 522/2/5 521/2/5
f 528/2/5 522/2/5 527/2/5
f 535/2/5 530/2/5 529/2/5
f 536/2/5 530/2/5 535/2/5
f 537/2/5 532/2/5 531/2/5
f 538/2/5 532/2/5 537/2/5
f 539/2/5 534/2/5 533/2/5
f 540/2/5 534/2/5 539/2/5
f 547/2/5 542/2/5 541/2/5
f 548/2/5 542/2/5 547/2/5
f 549/2/5 544/2/5 543/2/5
f 550/2/5 544/2/5 549/2/5
f 551/2/5 546/2/5 545/2/5
f 552/2/5 546/2/5 551/2/5
f 555/3/5 554/3/5 553/3/5
f 556/3/5 554/3/5 555/3/5
f 557/3/5 554/3/5 556/3/5
f 558/3/5 554/3/5 557/3/5
f 559/3/5 554/3/5 558/3/5
f 560/3/5 554/3/5 559/3/5
f 562/3/5 557/3/5 556/3/5
f 563/3/5 557/3/5 562/3/5
f 564/3/5 559/3/5 558/3/5
f 565/3/5 559/3/5 564/3/5
f 566/3/5 554/3/5 560/3/5
f 567/3/5 565/3/5 564/3/5
f 567/3/5 566/3/5 565/3/5
f 567/3/5 563/3/5 562/3/5
f 567/3/5 562/3/5 561/3/5
f 567/3/5 564/3/5 563/3/5
f 568/3/5 554/3/5 566/3/5
f 568/3/5 566/3/5 567/3/5
f 571/3/5 570/3/5 569/3/5
f 572/3/5 570/3/5 571/3/5
f 575/2/5 573/2/5 572/2/5
f 576/2/5 573/2/5 575/2/5
f 577/3/5 575/3/5 574/3/5
f 578/3/5 575/3/5 577/3/5
f 581/2/5 580/2/5 579/2/5
f 587/2/5 582/2/5 581/2/5
f 589/2/5 584/2/5 583/2/5
f 591/2/5 586/2/5 585/2/5
f 593/2/5 588/2/5 587/2/5
f 595/2/5 590/2/5 589/2/5
f 597/2/5 592/2/5 591/2/5
f 599/2/5 581/2/5 579/2/5
f 599/2/5 594/2/5 593/2/5
f 599/2/5 587/2/5 581/2/5
f 599/2/5 593/2/5 587/2/5
f 600/2/5 594/2/5 599/2/5
f 601/2/5 596/2/5 595/2/5
f 601/2/5 595/2/5 589/2/5
f 601/2/5 589/2/5 583/2/5
f 602/2/5 596/2/5 601/2/5
f 603/2/5 598/2/5 597/2/5
f 603/2/5 597/2/5 591/2/5
f 603/2/5 591/2/5 585/2/5
f 604/2/5 598/2/5 603/2/5
f 607/1/5 606/1/5 605/1/5
f 608/1/5 606/1/5 607/1/5
f 615/2/5 610/2/5 609/2/5
f 616/2/5 610/2/5 615/2/5
f 617/2/5 612/2/5 611/2/5
f 618/2/5 612/2/5 617/2/5
f 619/2/5 614/2/5 613/2/5
f 620/2/5 614/2/5 619/2/5
f 621/2/5 615/2/5 609/2/5
f 622/2/5 615/2/5 621/2/5
f 623/2/5 617/2/5 611/2/5
f 624/2/5 617/2/5 623/2/5
f 625/2/5 619/2/5 613/2/5
f 626/2/5 619/2/5 625/2/5
f 627/2/5 621/2/5 609/2/5
f 628/2/5 621/2/5 627/2/5
f 629/2/5 623/2/5 611/2/5
f 630/2/5 623/2/5 629/2/5
f 631/2/5 625/2/5 613/2/5
f 632/2/5 625/2/5 631/2/5
f 633/2/5 627/2/5 609/2/5
f 634/2/5 627/2/5 633/2/5
f 637/4/5 636/4/5 635/4/5
f 638/4/5 636/4/5 637/4/5
f 639/4/6 640/4/6 641/4/6
f 641/4/6 640/4/6 642/4/6
f 643/2/6 644/2/6 645/2/6
f 645/2/6 646/2/6 651/2/6
f 647/2/6 648/2/6 653/2/6
f 649/2/6 650/2/6 655/2/6
f 651/2/6 652/2/6 657/2/6
f 653/2/6 654/2/6 659/2/6
f 655/2/6 656/2/6 661/2/6
f 643/2/6 645/2/6 663/2/6
f 657/2/6 658/2/6 663/2/6
f 645/2/6 651/2/6 663/2/6
f 651/2/6 657/2/6 663/2/6
f 663/2/6 658/2/6 664/2/6
f 659/2/6 660/2/6 665/2/6
f 653/2/6 659/2/6 665/2/6
f 647/2/6 653/2/6 665/2/6
f 665/2/6 660/2/6 666/2/6
f 661/2/6 662/2/6 667/2/6
f 655/2/6 661/2/6 667/2/6
f 649/2/6 655/2/6 667/2/6
f 667/2/6 662/2/6 668/2/6
f 669/1/6 670/1/6 671/1/6
f 671/1/6 670/1/6 672/1/6
f 673/2/6 674/2/6 679/2/6
f 679/2/6 674/2/6 680/2/6
f 675/2/6 676/2/6 681/2/6
f 681/2/6 676/2/6 682/2/6
f 677/2/6 678/2/6 683/2/6
f 683/2/6 678/2/6 684/2/6
f 673/2/6 679/2/6 685/2/6
f 685/2/6 679/2/6 686/2/6
f 675/2/6 681/2/6 687/2/6
f 687/2/6 681/2/6 688/2/6
f 677/2/6 683/2/6 689/2/6
f 689/2/6 683/2/6 690/2/6
f 673/2/6 685/2/6 691/2/6
f 691/2/6 685/2/6 692/2/6
f 675/2/6 687/2/6 693/2/6
f 693/2/6 687/2/6 694/2/6
f 677/2/6 689/2/6 695/2/6
f 695/2/6 689/2/6 696/2/6
f 673/2/6 691/2/6 697/2/6
f 697/2/6 691/2/6 698/2/6
f 699/3/6 700/3/6 701/3/6
f 701/3/6 700/3/6 702/3/6
f 702/2/6 703/2/6 705/2/6
f 705/2/6 703/2/6 706/2/6
f 704/3/6 705/3/6 707/3/6
f 707/3/6 705/3/6 708/3/6
f 709/3/6 710/3/6 711/3/6
f 711/3/6 710/3/6 712/3/6
f 712/3/6 710/3/6 713/3/6
f 713/3/6 710/3/6 714/3/6
f 714/3/6 710/3/6 715/3/6
f 715/3/6 710/3/6 716/3/6
f 712/3/6 713/3/6 718/3/6
f 718/3/6 713/3/6 719/3/6
f 714/3/6 715/3/6 720/3/6
f 720/3/6 715/3/6 721/3/6
f 716/3/6 710/3/6 722/3/6
f 720/3/6 721/3/6 723/3/6
f 721/3/6 722/3/6 723/3/6
f 718/3/6 719/3/6 723/3/6
f 717/3/6 718/3/6 723/3/6
f 719/3/6 720/3/6 723/3/6
f 722/3/6 710/3/6 724/3/6
f 723/3/6 722/3/6 724/3/6
f 725/2/6 726/2/6 731/2/6
f 731/2/6 726/2/6 732/2/6
f 727/2/6 728/2/6 733/2/6
f 733/2/6 728/2/6 734/2/6
f 729/2/6 730/2/6 735/2/6
f 735/2/6 730/2/6 736/2/6
f 737/2/6 738/2/6 743/2/6
f 743/2/6 738/2/6 744/2/6
f 739/2/6 740/2/6 745/2/6
f 745/2/6 740/2/6 746/2/6
f 741/2/6 742/2/6 747/2/6
f 747/2/6 742/2/6 748/2/6
f 749/2/6 750/2/6 755/2/6
f 755/2/6 750/2/6 756/2/6
f 751/2/6 752/2/6 757/2/6
f 757/2/6 752/2/6 758/2/6
f 753/2/6 754/2/6 759/2/6
f 759/2/6 754/2/6 760/2/6
f 761/2/6 762/2/6 763/2/6
f 763/2/6 762/2/6 764/2/6
