# MagicaVoxel @ ephtracy

# material
mtllib missile.mtl
usemtl palette

# normals
vn -1 0 0
vn 1 0 0
vn 0 0 1
vn 0 0 -1
vn 0 -1 0
vn 0 1 0

# texcoords
vt 0.689453 0.5
vt 0.783203 0.5
vt 0.908203 0.5
vt 0.974609 0.5
vt 0.982422 0.5
vt 0.986328 0.5

# verts
v -6.5 6 -14
v -6.5 6 -15
v -6.5 7 -14
v -6.5 7 -15
v -5.5 6 10
v -5.5 6 9
v -5.5 6 5
v -5.5 6 4
v -5.5 6 -13
v -5.5 6 -14
v -5.5 7 10
v -5.5 7 9
v -5.5 7 5
v -5.5 7 4
v -5.5 7 -13
v -5.5 7 -14
v -4.5 6 11
v -4.5 6 10
v -4.5 6 6
v -4.5 6 5
v -4.5 6 -12
v -4.5 6 -13
v -4.5 7 11
v -4.5 7 10
v -4.5 7 6
v -4.5 7 5
v -4.5 7 -12
v -4.5 7 -13
v -3.5 6 12
v -3.5 6 11
v -3.5 6 7
v -3.5 6 6
v -3.5 6 -11
v -3.5 6 -12
v -3.5 7 12
v -3.5 7 11
v -3.5 7 7
v -3.5 7 6
v -3.5 7 -11
v -3.5 7 -12
v -2.5 5 13
v -2.5 5 -15
v -2.5 6 12
v -2.5 6 9
v -2.5 6 7
v -2.5 6 4
v -2.5 6 -11
v -2.5 6 -15
v -2.5 7 12
v -2.5 7 9
v -2.5 7 7
v -2.5 7 4
v -2.5 7 -11
v -2.5 7 -15
v -2.5 8 13
v -2.5 8 -15
v -1.5 4 13
v -1.5 4 -15
v -1.5 5 14
v -1.5 5 13
v -1.5 5 -15
v -1.5 8 14
v -1.5 8 13
v -1.5 8 -15
v -1.5 9 13
v -1.5 9 -15
v -0.5 0 -14
v -0.5 0 -15
v -0.5 1 10
v -0.5 1 9
v -0.5 1 5
v -0.5 1 4
v -0.5 1 -13
v -0.5 1 -14
v -0.5 2 11
v -0.5 2 10
v -0.5 2 6
v -0.5 2 5
v -0.5 2 -12
v -0.5 2 -13
v -0.5 3 12
v -0.5 3 11
v -0.5 3 7
v -0.5 3 6
v -0.5 3 -11
v -0.5 3 -12
v -0.5 4 12
v -0.5 4 9
v -0.5 4 7
v -0.5 4 4
v -0.5 4 -11
v -0.5 4 -15
v -0.5 6 15
v -0.5 6 14
v -0.5 7 15
v -0.5 7 14
v -0.5 9 12
v -0.5 9 9
v -0.5 9 7
v -0.5 9 4
v -0.5 9 -11
v -0.5 9 -15
v -0.5 10 12
v -0.5 10 11
v -0.5 10 7
v -0.5 10 6
v -0.5 10 -11
v -0.5 10 -12
v -0.5 11 11
v -0.5 11 10
v -0.5 11 6
v -0.5 11 5
v -0.5 11 -12
v -0.5 11 -13
v -0.5 12 10
v -0.5 12 9
v -0.5 12 5
v -0.5 12 4
v -0.5 12 -13
v -0.5 12 -14
v -0.5 13 -14
v -0.5 13 -15
v 0.5 6 12
v 0.5 6 -13
v 0.5 6 -14
v 0.5 6 -15
v 0.5 7 12
v 0.5 7 -13
v 0.5 7 -14
v 0.5 7 -15
v -0.5 6 12
v -0.5 6 -13
v -0.5 6 -14
v -0.5 6 -15
v -0.5 7 12
v -0.5 7 -13
v -0.5 7 -14
v -0.5 7 -15
v 0.5 0 -14
v 0.5 0 -15
v 0.5 1 10
v 0.5 1 9
v 0.5 1 5
v 0.5 1 4
v 0.5 1 -13
v 0.5 1 -14
v 0.5 2 11
v 0.5 2 10
v 0.5 2 6
v 0.5 2 5
v 0.5 2 -12
v 0.5 2 -13
v 0.5 3 12
v 0.5 3 11
v 0.5 3 7
v 0.5 3 6
v 0.5 3 -11
v 0.5 3 -12
v 0.5 4 12
v 0.5 4 9
v 0.5 4 7
v 0.5 4 4
v 0.5 4 -11
v 0.5 4 -15
v 0.5 6 15
v 0.5 6 14
v 0.5 7 15
v 0.5 7 14
v 0.5 9 12
v 0.5 9 9
v 0.5 9 7
v 0.5 9 4
v 0.5 9 -11
v 0.5 9 -15
v 0.5 10 12
v 0.5 10 11
v 0.5 10 7
v 0.5 10 6
v 0.5 10 -11
v 0.5 10 -12
v 0.5 11 11
v 0.5 11 10
v 0.5 11 6
v 0.5 11 5
v 0.5 11 -12
v 0.5 11 -13
v 0.5 12 10
v 0.5 12 9
v 0.5 12 5
v 0.5 12 4
v 0.5 12 -13
v 0.5 12 -14
v 0.5 13 -14
v 0.5 13 -15
v 1.5 4 13
v 1.5 4 -15
v 1.5 5 14
v 1.5 5 13
v 1.5 5 -15
v 1.5 8 14
v 1.5 8 13
v 1.5 8 -15
v 1.5 9 13
v 1.5 9 -15
v 2.5 5 13
v 2.5 5 -15
v 2.5 6 12
v 2.5 6 9
v 2.5 6 7
v 2.5 6 4
v 2.5 6 -11
v 2.5 6 -15
v 2.5 7 12
v 2.5 7 9
v 2.5 7 7
v 2.5 7 4
v 2.5 7 -11
v 2.5 7 -15
v 2.5 8 13
v 2.5 8 -15
v 3.5 6 12
v 3.5 6 11
v 3.5 6 7
v 3.5 6 6
v 3.5 6 -11
v 3.5 6 -12
v 3.5 7 12
v 3.5 7 11
v 3.5 7 7
v 3.5 7 6
v 3.5 7 -11
v 3.5 7 -12
v 4.5 6 11
v 4.5 6 10
v 4.5 6 6
v 4.5 6 5
v 4.5 6 -12
v 4.5 6 -13
v 4.5 7 11
v 4.5 7 10
v 4.5 7 6
v 4.5 7 5
v 4.5 7 -12
v 4.5 7 -13
v 5.5 6 10
v 5.5 6 9
v 5.5 6 5
v 5.5 6 4
v 5.5 6 -13
v 5.5 6 -14
v 5.5 7 10
v 5.5 7 9
v 5.5 7 5
v 5.5 7 4
v 5.5 7 -13
v 5.5 7 -14
v 6.5 6 -14
v 6.5 6 -15
v 6.5 7 -14
v 6.5 7 -15
v -0.5 6 15
v -0.5 7 15
v 0.5 6 15
v 0.5 7 15
v -1.5 5 14
v -1.5 8 14
v -0.5 6 14
v -0.5 7 14
v 0.5 6 14
v 0.5 7 14
v 1.5 5 14
v 1.5 8 14
v -2.5 5 13
v -2.5 8 13
v -1.5 4 13
v -1.5 5 13
v -1.5 8 13
v -1.5 9 13
v 1.5 4 13
v 1.5 5 13
v 1.5 8 13
v 1.5 9 13
v 2.5 5 13
v 2.5 8 13
v -3.5 6 12
v -3.5 7 12
v -2.5 6 12
v -2.5 7 12
v -0.5 3 12
v -0.5 4 12
v -0.5 9 12
v -0.5 10 12
v 0.5 3 12
v 0.5 4 12
v 0.5 9 12
v 0.5 10 12
v 2.5 6 12
v 2.5 7 12
v 3.5 6 12
v 3.5 7 12
v -4.5 6 11
v -4.5 7 11
v -3.5 6 11
v -3.5 7 11
v -0.5 2 11
v -0.5 3 11
v -0.5 10 11
v -0.5 11 11
v 0.5 2 11
v 0.5 3 11
v 0.5 10 11
v 0.5 11 11
v 3.5 6 11
v 3.5 7 11
v 4.5 6 11
v 4.5 7 11
v -5.5 6 10
v -5.5 7 10
v -4.5 6 10
v -4.5 7 10
v -0.5 1 10
v -0.5 2 10
v -0.5 11 10
v -0.5 12 10
v 0.5 1 10
v 0.5 2 10
v 0.5 11 10
v 0.5 12 10
v 4.5 6 10
v 4.5 7 10
v 5.5 6 10
v 5.5 7 10
v -3.5 6 7
v -3.5 7 7
v -2.5 6 7
v -2.5 7 7
v -0.5 3 7
v -0.5 4 7
v -0.5 9 7
v -0.5 10 7
v 0.5 3 7
v 0.5 4 7
v 0.5 9 7
v 0.5 10 7
v 2.5 6 7
v 2.5 7 7
v 3.5 6 7
v 3.5 7 7
v -4.5 6 6
v -4.5 7 6
v -3.5 6 6
v -3.5 7 6
v -0.5 2 6
v -0.5 3 6
v -0.5 10 6
v -0.5 11 6
v 0.5 2 6
v 0.5 3 6
v 0.5 10 6
v 0.5 11 6
v 3.5 6 6
v 3.5 7 6
v 4.5 6 6
v 4.5 7 6
v -5.5 6 5
v -5.5 7 5
v -4.5 6 5
v -4.5 7 5
v -0.5 1 5
v -0.5 2 5
v -0.5 11 5
v -0.5 12 5
v 0.5 1 5
v 0.5 2 5
v 0.5 11 5
v 0.5 12 5
v 4.5 6 5
v 4.5 7 5
v 5.5 6 5
v 5.5 7 5
v -3.5 6 -11
v -3.5 7 -11
v -2.5 6 -11
v -2.5 7 -11
v -0.5 3 -11
v -0.5 4 -11
v -0.5 9 -11
v -0.5 10 -11
v 0.5 3 -11
v 0.5 4 -11
v 0.5 9 -11
v 0.5 10 -11
v 2.5 6 -11
v 2.5 7 -11
v 3.5 6 -11
v 3.5 7 -11
v -4.5 6 -12
v -4.5 7 -12
v -3.5 6 -12
v -3.5 7 -12
v -0.5 2 -12
v -0.5 3 -12
v -0.5 10 -12
v -0.5 11 -12
v 0.5 2 -12
v 0.5 3 -12
v 0.5 10 -12
v 0.5 11 -12
v 3.5 6 -12
v 3.5 7 -12
v 4.5 6 -12
v 4.5 7 -12
v -5.5 6 -13
v -5.5 7 -13
v -4.5 6 -13
v -4.5 7 -13
v -0.5 1 -13
v -0.5 2 -13
v -0.5 6 -13
v -0.5 7 -13
v -0.5 11 -13
v -0.5 12 -13
v 0.5 1 -13
v 0.5 2 -13
v 0.5 6 -13
v 0.5 7 -13
v 0.5 11 -13
v 0.5 12 -13
v 4.5 6 -13
v 4.5 7 -13
v 5.5 6 -13
v 5.5 7 -13
v -6.5 6 -14
v -6.5 7 -14
v -5.5 6 -14
v -5.5 7 -14
v -0.5 0 -14
v -0.5 1 -14
v -0.5 12 -14
v -0.5 13 -14
v 0.5 0 -14
v 0.5 1 -14
v 0.5 12 -14
v 0.5 13 -14
v 5.5 6 -14
v 5.5 7 -14
v 6.5 6 -14
v 6.5 7 -14
v -0.5 6 12
v -0.5 7 12
v 0.5 6 12
v 0.5 7 12
v -5.5 6 9
v -5.5 7 9
v -2.5 6 9
v -2.5 7 9
v -0.5 1 9
v -0.5 4 9
v -0.5 9 9
v -0.5 12 9
v 0.5 1 9
v 0.5 4 9
v 0.5 9 9
v 0.5 12 9
v 2.5 6 9
v 2.5 7 9
v 5.5 6 9
v 5.5 7 9
v -5.5 6 4
v -5.5 7 4
v -2.5 6 4
v -2.5 7 4
v -0.5 1 4
v -0.5 4 4
v -0.5 9 4
v -0.5 12 4
v 0.5 1 4
v 0.5 4 4
v 0.5 9 4
v 0.5 12 4
v 2.5 6 4
v 2.5 7 4
v 5.5 6 4
v 5.5 7 4
v -0.5 6 -14
v -0.5 7 -14
v 0.5 6 -14
v 0.5 7 -14
v -6.5 6 -15
v -6.5 7 -15
v -2.5 5 -15
v -2.5 6 -15
v -2.5 7 -15
v -2.5 8 -15
v -1.5 4 -15
v -1.5 5 -15
v -1.5 6 -15
v -1.5 7 -15
v -1.5 8 -15
v -1.5 9 -15
v -0.5 0 -15
v -0.5 4 -15
v -0.5 5 -15
v -0.5 6 -15
v -0.5 7 -15
v -0.5 8 -15
v -0.5 9 -15
v -0.5 13 -15
v 0.5 0 -15
v 0.5 4 -15
v 0.5 5 -15
v 0.5 6 -15
v 0.5 7 -15
v 0.5 8 -15
v 0.5 9 -15
v 0.5 13 -15
v 1.5 4 -15
v 1.5 5 -15
v 1.5 6 -15
v 1.5 7 -15
v 1.5 8 -15
v 1.5 9 -15
v 2.5 5 -15
v 2.5 6 -15
v 2.5 7 -15
v 2.5 8 -15
v 6.5 6 -15
v 6.5 7 -15
v -0.5 0 -14
v 0.5 0 -14
v -0.5 0 -15
v 0.5 0 -15
v -0.5 1 10
v 0.5 1 10
v -0.5 1 9
v 0.5 1 9
v -0.5 1 5
v 0.5 1 5
v -0.5 1 4
v 0.5 1 4
v -0.5 1 -13
v 0.5 1 -13
v -0.5 1 -14
v 0.5 1 -14
v -0.5 2 11
v 0.5 2 11
v -0.5 2 10
v 0.5 2 10
v -0.5 2 6
v 0.5 2 6
v -0.5 2 5
v 0.5 2 5
v -0.5 2 -12
v 0.5 2 -12
v -0.5 2 -13
v 0.5 2 -13
v -0.5 3 12
v 0.5 3 12
v -0.5 3 11
v 0.5 3 11
v -0.5 3 7
v 0.5 3 7
v -0.5 3 6
v 0.5 3 6
v -0.5 3 -11
v 0.5 3 -11
v -0.5 3 -12
v 0.5 3 -12
v -1.5 4 13
v 1.5 4 13
v -0.5 4 12
v 0.5 4 12
v -0.5 4 9
v 0.5 4 9
v -0.5 4 7
v 0.5 4 7
v -0.5 4 4
v 0.5 4 4
v -0.5 4 -11
v 0.5 4 -11
v -1.5 4 -15
v -0.5 4 -15
v 0.5 4 -15
v 1.5 4 -15
v -1.5 5 14
v 1.5 5 14
v -2.5 5 13
v -1.5 5 13
v 1.5 5 13
v 2.5 5 13
v -2.5 5 -15
v -1.5 5 -15
v 1.5 5 -15
v 2.5 5 -15
v -0.5 6 15
v 0.5 6 15
v -0.5 6 14
v 0.5 6 14
v -3.5 6 12
v -2.5 6 12
v 2.5 6 12
v 3.5 6 12
v -4.5 6 11
v -3.5 6 11
v 3.5 6 11
v 4.5 6 11
v -5.5 6 10
v -4.5 6 10
v 4.5 6 10
v 5.5 6 10
v -5.5 6 9
v -2.5 6 9
v 2.5 6 9
v 5.5 6 9
v -3.5 6 7
v -2.5 6 7
v 2.5 6 7
v 3.5 6 7
v -4.5 6 6
v -3.5 6 6
v 3.5 6 6
v 4.5 6 6
v -5.5 6 5
v -4.5 6 5
v 4.5 6 5
v 5.5 6 5
v -5.5 6 4
v -2.5 6 4
v 2.5 6 4
v 5.5 6 4
v -3.5 6 -11
v -2.5 6 -11
v 2.5 6 -11
v 3.5 6 -11
v -4.5 6 -12
v -3.5 6 -12
v 3.5 6 -12
v 4.5 6 -12
v -5.5 6 -13
v -4.5 6 -13
v 4.5 6 -13
v 5.5 6 -13
v -6.5 6 -14
v -5.5 6 -14
v 5.5 6 -14
v 6.5 6 -14
v -6.5 6 -15
v -2.5 6 -15
v 2.5 6 -15
v 6.5 6 -15
v -0.5 7 12
v 0.5 7 12
v -0.5 7 -13
v 0.5 7 -13
v -0.5 7 -14
v 0.5 7 -14
v -0.5 7 -15
v 0.5 7 -15
v -0.5 6 12
v 0.5 6 12
v -0.5 6 -13
v 0.5 6 -13
v -0.5 6 -14
v 0.5 6 -14
v -0.5 6 -15
v 0.5 6 -15
v -0.5 7 15
v 0.5 7 15
v -0.5 7 14
v 0.5 7 14
v -3.5 7 12
v -2.5 7 12
v 2.5 7 12
v 3.5 7 12
v -4.5 7 11
v -3.5 7 11
v 3.5 7 11
v 4.5 7 11
v -5.5 7 10
v -4.5 7 10
v 4.5 7 10
v 5.5 7 10
v -5.5 7 9
v -2.5 7 9
v 2.5 7 9
v 5.5 7 9
v -3.5 7 7
v -2.5 7 7
v 2.5 7 7
v 3.5 7 7
v -4.5 7 6
v -3.5 7 6
v 3.5 7 6
v 4.5 7 6
v -5.5 7 5
v -4.5 7 5
v 4.5 7 5
v 5.5 7 5
v -5.5 7 4
v -2.5 7 4
v 2.5 7 4
v 5.5 7 4
v -3.5 7 -11
v -2.5 7 -11
v 2.5 7 -11
v 3.5 7 -11
v -4.5 7 -12
v -3.5 7 -12
v 3.5 7 -12
v 4.5 7 -12
v -5.5 7 -13
v -4.5 7 -13
v 4.5 7 -13
v 5.5 7 -13
v -6.5 7 -14
v -5.5 7 -14
v 5.5 7 -14
v 6.5 7 -14
v -6.5 7 -15
v -2.5 7 -15
v 2.5 7 -15
v 6.5 7 -15
v -1.5 8 14
v 1.5 8 14
v -2.5 8 13
v -1.5 8 13
v 1.5 8 13
v 2.5 8 13
v -2.5 8 -15
v -1.5 8 -15
v 1.5 8 -15
v 2.5 8 -15
v -1.5 9 13
v 1.5 9 13
v -0.5 9 12
v 0.5 9 12
v -0.5 9 9
v 0.5 9 9
v -0.5 9 7
v 0.5 9 7
v -0.5 9 4
v 0.5 9 4
v -0.5 9 -11
v 0.5 9 -11
v -1.5 9 -15
v -0.5 9 -15
v 0.5 9 -15
v 1.5 9 -15
v -0.5 10 12
v 0.5 10 12
v -0.5 10 11
v 0.5 10 11
v -0.5 10 7
v 0.5 10 7
v -0.5 10 6
v 0.5 10 6
v -0.5 10 -11
v 0.5 10 -11
v -0.5 10 -12
v 0.5 10 -12
v -0.5 11 11
v 0.5 11 11
v -0.5 11 10
v 0.5 11 10
v -0.5 11 6
v 0.5 11 6
v -0.5 11 5
v 0.5 11 5
v -0.5 11 -12
v 0.5 11 -12
v -0.5 11 -13
v 0.5 11 -13
v -0.5 12 10
v 0.5 12 10
v -0.5 12 9
v 0.5 12 9
v -0.5 12 5
v 0.5 12 5
v -0.5 12 4
v 0.5 12 4
v -0.5 12 -13
v 0.5 12 -13
v -0.5 12 -14
v 0.5 12 -14
v -0.5 13 -14
v 0.5 13 -14
v -0.5 13 -15
v 0.5 13 -15

# faces
f 3/2/1 2/2/1 1/2/1
f 4/2/1 2/2/1 3/2/1
f 11/2/1 6/2/1 5/2/1
f 12/2/1 6/2/1 11/2/1
f 13/2/1 8/2/1 7/2/1
f 14/2/1 8/2/1 13/2/1
f 15/2/1 10/2/1 9/2/1
f 16/2/1 10/2/1 15/2/1
f 23/2/1 18/2/1 17/2/1
f 24/2/1 18/2/1 23/2/1
f 25/2/1 20/2/1 19/2/1
f 26/2/1 20/2/1 25/2/1
f 27/2/1 22/2/1 21/2/1
f 28/2/1 22/2/1 27/2/1
f 35/2/1 30/2/1 29/2/1
f 36/2/1 30/2/1 35/2/1
f 37/2/1 32/2/1 31/2/1
f 38/2/1 32/2/1 37/2/1
f 39/2/1 34/2/1 33/2/1
f 40/2/1 34/2/1 39/2/1
f 43/3/1 42/3/1 41/3/1
f 44/3/1 42/3/1 43/3/1
f 45/3/1 42/3/1 44/3/1
f 46/3/1 42/3/1 45/3/1
f 47/3/1 42/3/1 46/3/1
f 48/3/1 42/3/1 47/3/1
f 49/3/1 43/3/1 41/3/1
f 50/3/1 45/3/1 44/3/1
f 51/3/1 45/3/1 50/3/1
f 52/3/1 47/3/1 46/3/1
f 53/3/1 47/3/1 52/3/1
f 55/3/1 51/3/1 50/3/1
f 55/3/1 54/3/1 53/3/1
f 55/3/1 53/3/1 52/3/1
f 55/3/1 52/3/1 51/3/1
f 55/3/1 49/3/1 41/3/1
f 55/3/1 50/3/1 49/3/1
f 56/3/1 54/3/1 55/3/1
f 60/3/1 58/3/1 57/3/1
f 61/3/1 58/3/1 60/3/1
f 62/2/1 60/2/1 59/2/1
f 63/2/1 60/2/1 62/2/1
f 65/3/1 64/3/1 63/3/1
f 66/3/1 64/3/1 65/3/1
f 74/2/1 68/2/1 67/2/1
f 76/2/1 70/2/1 69/2/1
f 78/2/1 72/2/1 71/2/1
f 80/2/1 74/2/1 73/2/1
f 82/2/1 76/2/1 75/2/1
f 84/2/1 78/2/1 77/2/1
f 86/2/1 80/2/1 79/2/1
f 87/2/1 82/2/1 81/2/1
f 88/2/1 70/2/1 76/2/1
f 88/2/1 82/2/1 87/2/1
f 88/2/1 76/2/1 82/2/1
f 89/2/1 84/2/1 83/2/1
f 90/2/1 72/2/1 78/2/1
f 90/2/1 84/2/1 89/2/1
f 90/2/1 78/2/1 84/2/1
f 91/2/1 86/2/1 85/2/1
f 92/2/1 68/2/1 74/2/1
f 92/2/1 86/2/1 91/2/1
f 92/2/1 74/2/1 80/2/1
f 92/2/1 80/2/1 86/2/1
f 95/1/1 94/1/1 93/1/1
f 96/1/1 94/1/1 95/1/1
f 103/2/1 98/2/1 97/2/1
f 104/2/1 98/2/1 103/2/1
f 105/2/1 100/2/1 99/2/1
f 106/2/1 100/2/1 105/2/1
f 107/2/1 102/2/1 101/2/1
f 108/2/1 102/2/1 107/2/1
f 109/2/1 98/2/1 104/2/1
f 110/2/1 98/2/1 109/2/1
f 111/2/1 100/2/1 106/2/1
f 112/2/1 100/2/1 111/2/1
f 113/2/1 102/2/1 108/2/1
f 114/2/1 102/2/1 113/2/1
f 115/2/1 98/2/1 110/2/1
f 116/2/1 98/2/1 115/2/1
f 117/2/1 100/2/1 112/2/1
f 118/2/1 100/2/1 117/2/1
f 119/2/1 102/2/1 114/2/1
f 120/2/1 102/2/1 119/2/1
f 121/2/1 102/2/1 120/2/1
f 122/2/1 102/2/1 121/2/1
f 127/4/1 124/4/1 123/4/1
f 128/4/1 124/4/1 127/4/1
f 129/5/1 126/5/1 125/5/1
f 130/5/1 126/5/1 129/5/1
f 131/4/2 132/4/2 135/4/2
f 135/4/2 132/4/2 136/4/2
f 133/5/2 134/5/2 137/5/2
f 137/5/2 134/5/2 138/5/2
f 139/2/2 140/2/2 146/2/2
f 141/2/2 142/2/2 148/2/2
f 143/2/2 144/2/2 150/2/2
f 145/2/2 146/2/2 152/2/2
f 147/2/2 148/2/2 154/2/2
f 149/2/2 150/2/2 156/2/2
f 151/2/2 152/2/2 158/2/2
f 153/2/2 154/2/2 159/2/2
f 148/2/2 142/2/2 160/2/2
f 159/2/2 154/2/2 160/2/2
f 154/2/2 148/2/2 160/2/2
f 155/2/2 156/2/2 161/2/2
f 150/2/2 144/2/2 162/2/2
f 161/2/2 156/2/2 162/2/2
f 156/2/2 150/2/2 162/2/2
f 157/2/2 158/2/2 163/2/2
f 146/2/2 140/2/2 164/2/2
f 163/2/2 158/2/2 164/2/2
f 152/2/2 146/2/2 164/2/2
f 158/2/2 152/2/2 164/2/2
f 165/1/2 166/1/2 167/1/2
f 167/1/2 166/1/2 168/1/2
f 169/2/2 170/2/2 175/2/2
f 175/2/2 170/2/2 176/2/2
f 171/2/2 172/2/2 177/2/2
f 177/2/2 172/2/2 178/2/2
f 173/2/2 174/2/2 179/2/2
f 179/2/2 174/2/2 180/2/2
f 176/2/2 170/2/2 181/2/2
f 181/2/2 170/2/2 182/2/2
f 178/2/2 172/2/2 183/2/2
f 183/2/2 172/2/2 184/2/2
f 180/2/2 174/2/2 185/2/2
f 185/2/2 174/2/2 186/2/2
f 182/2/2 170/2/2 187/2/2
f 187/2/2 170/2/2 188/2/2
f 184/2/2 172/2/2 189/2/2
f 189/2/2 172/2/2 190/2/2
f 186/2/2 174/2/2 191/2/2
f 191/2/2 174/2/2 192/2/2
f 192/2/2 174/2/2 193/2/2
f 193/2/2 174/2/2 194/2/2
f 195/3/2 196/3/2 198/3/2
f 198/3/2 196/3/2 199/3/2
f 197/2/2 198/2/2 200/2/2
f 200/2/2 198/2/2 201/2/2
f 201/3/2 202/3/2 203/3/2
f 203/3/2 202/3/2 204/3/2
f 205/3/2 206/3/2 207/3/2
f 207/3/2 206/3/2 208/3/2
f 208/3/2 206/3/2 209/3/2
f 209/3/2 206/3/2 210/3/2
f 210/3/2 206/3/2 211/3/2
f 211/3/2 206/3/2 212/3/2
f 205/3/2 207/3/2 213/3/2
f 208/3/2 209/3/2 214/3/2
f 214/3/2 209/3/2 215/3/2
f 210/3/2 211/3/2 216/3/2
f 216/3/2 211/3/2 217/3/2
f 214/3/2 215/3/2 219/3/2
f 217/3/2 218/3/2 219/3/2
f 216/3/2 217/3/2 219/3/2
f 215/3/2 216/3/2 219/3/2
f 205/3/2 213/3/2 219/3/2
f 213/3/2 214/3/2 219/3/2
f 219/3/2 218/3/2 220/3/2
f 221/2/2 222/2/2 227/2/2
f 227/2/2 222/2/2 228/2/2
f 223/2/2 224/2/2 229/2/2
f 229/2/2 224/2/2 230/2/2
f 225/2/2 226/2/2 231/2/2
f 231/2/2 226/2/2 232/2/2
f 233/2/2 234/2/2 239/2/2
f 239/2/2 234/2/2 240/2/2
f 235/2/2 236/2/2 241/2/2
f 241/2/2 236/2/2 242/2/2
f 237/2/2 238/2/2 243/2/2
f 243/2/2 238/2/2 244/2/2
f 245/2/2 246/2/2 251/2/2
f 251/2/2 246/2/2 252/2/2
f 247/2/2 248/2/2 253/2/2
f 253/2/2 248/2/2 254/2/2
f 249/2/2 250/2/2 255/2/2
f 255/2/2 250/2/2 256/2/2
f 257/2/2 258/2/2 259/2/2
f 259/2/2 258/2/2 260/2/2
f 263/1/3 262/1/3 261/1/3
f 264/1/3 262/1/3 263/1/3
f 267/2/3 266/2/3 265/2/3
f 268/2/3 266/2/3 267/2/3
f 269/2/3 267/2/3 265/2/3
f 270/2/3 266/2/3 268/2/3
f 271/2/3 269/2/3 265/2/3
f 271/2/3 270/2/3 269/2/3
f 272/2/3 266/2/3 270/2/3
f 272/2/3 270/2/3 271/2/3
f 276/3/3 274/3/3 273/3/3
f 277/3/3 274/3/3 276/3/3
f 279/3/3 276/3/3 275/3/3
f 280/3/3 276/3/3 279/3/3
f 281/3/3 278/3/3 277/3/3
f 282/3/3 278/3/3 281/3/3
f 283/3/3 281/3/3 280/3/3
f 284/3/3 281/3/3 283/3/3
f 287/2/3 286/2/3 285/2/3
f 288/2/3 286/2/3 287/2/3
f 293/2/3 290/2/3 289/2/3
f 294/2/3 290/2/3 293/2/3
f 295/2/3 292/2/3 291/2/3
f 296/2/3 292/2/3 295/2/3
f 299/2/3 298/2/3 297/2/3
f 300/2/3 298/2/3 299/2/3
f 303/2/3 302/2/3 301/2/3
f 304/2/3 302/2/3 303/2/3
f 309/2/3 306/2/3 305/2/3
f 310/2/3 306/2/3 309/2/3
f 311/2/3 308/2/3 307/2/3
f 312/2/3 308/2/3 311/2/3
f 315/2/3 314/2/3 313/2/3
f 316/2/3 314/2/3 315/2/3
f 319/2/3 318/2/3 317/2/3
f 320/2/3 318/2/3 319/2/3
f 325/2/3 322/2/3 321/2/3
f 326/2/3 322/2/3 325/2/3
f 327/2/3 324/2/3 323/2/3
f 328/2/3 324/2/3 327/2/3
f 331/2/3 330/2/3 329/2/3
f 332/2/3 330/2/3 331/2/3
f 335/2/3 334/2/3 333/2/3
f 336/2/3 334/2/3 335/2/3
f 341/2/3 338/2/3 337/2/3
f 342/2/3 338/2/3 341/2/3
f 343/2/3 340/2/3 339/2/3
f 344/2/3 340/2/3 343/2/3
f 347/2/3 346/2/3 345/2/3
f 348/2/3 346/2/3 347/2/3
f 351/2/3 350/2/3 349/2/3
f 352/2/3 350/2/3 351/2/3
f 357/2/3 354/2/3 353/2/3
f 358/2/3 354/2/3 357/2/3
f 359/2/3 356/2/3 355/2/3
f 360/2/3 356/2/3 359/2/3
f 363/2/3 362/2/3 361/2/3
f 364/2/3 362/2/3 363/2/3
f 367/2/3 366/2/3 365/2/3
f 368/2/3 366/2/3 367/2/3
f 373/2/3 370/2/3 369/2/3
f 374/2/3 370/2/3 373/2/3
f 375/2/3 372/2/3 371/2/3
f 376/2/3 372/2/3 375/2/3
f 379/2/3 378/2/3 377/2/3
f 380/2/3 378/2/3 379/2/3
f 383/2/3 382/2/3 381/2/3
f 384/2/3 382/2/3 383/2/3
f 389/2/3 386/2/3 385/2/3
f 390/2/3 386/2/3 389/2/3
f 391/2/3 388/2/3 387/2/3
f 392/2/3 388/2/3 391/2/3
f 395/2/3 394/2/3 393/2/3
f 396/2/3 394/2/3 395/2/3
f 399/2/3 398/2/3 397/2/3
f 400/2/3 398/2/3 399/2/3
f 405/2/3 402/2/3 401/2/3
f 406/2/3 402/2/3 405/2/3
f 407/2/3 404/2/3 403/2/3
f 408/2/3 404/2/3 407/2/3
f 411/2/3 410/2/3 409/2/3
f 412/2/3 410/2/3 411/2/3
f 415/2/3 414/2/3 413/2/3
f 416/2/3 414/2/3 415/2/3
f 423/2/3 418/2/3 417/2/3
f 424/2/3 418/2/3 423/2/3
f 425/6/3 420/6/3 419/6/3
f 426/6/3 420/6/3 425/6/3
f 427/2/3 422/2/3 421/2/3
f 428/2/3 422/2/3 427/2/3
f 431/2/3 430/2/3 429/2/3
f 432/2/3 430/2/3 431/2/3
f 435/2/3 434/2/3 433/2/3
f 436/2/3 434/2/3 435/2/3
f 441/2/3 438/2/3 437/2/3
f 442/2/3 438/2/3 441/2/3
f 443/2/3 440/2/3 439/2/3
f 444/2/3 440/2/3 443/2/3
f 447/2/3 446/2/3 445/2/3
f 448/2/3 446/2/3 447/2/3
f 449/4/4 450/4/4 451/4/4
f 451/4/4 450/4/4 452/4/4
f 453/2/4 454/2/4 455/2/4
f 455/2/4 454/2/4 456/2/4
f 457/2/4 458/2/4 461/2/4
f 461/2/4 458/2/4 462/2/4
f 459/2/4 460/2/4 463/2/4
f 463/2/4 460/2/4 464/2/4
f 465/2/4 466/2/4 467/2/4
f 467/2/4 466/2/4 468/2/4
f 469/2/4 470/2/4 471/2/4
f 471/2/4 470/2/4 472/2/4
f 473/2/4 474/2/4 477/2/4
f 477/2/4 474/2/4 478/2/4
f 475/2/4 476/2/4 479/2/4
f 479/2/4 476/2/4 480/2/4
f 481/2/4 482/2/4 483/2/4
f 483/2/4 482/2/4 484/2/4
f 485/6/4 486/6/4 487/6/4
f 487/6/4 486/6/4 488/6/4
f 489/2/4 490/2/4 492/2/4
f 492/2/4 490/2/4 493/2/4
f 491/3/4 492/3/4 496/3/4
f 492/5/4 493/5/4 497/5/4
f 496/3/4 492/3/4 497/3/4
f 493/3/4 494/3/4 498/3/4
f 497/5/4 493/5/4 498/5/4
f 498/3/4 494/3/4 499/3/4
f 495/3/4 496/3/4 502/3/4
f 496/5/4 497/5/4 503/5/4
f 497/5/4 498/5/4 503/5/4
f 502/3/4 496/3/4 503/3/4
f 498/5/4 499/5/4 503/5/4
f 503/5/4 499/5/4 504/5/4
f 504/5/4 499/5/4 505/5/4
f 499/3/4 500/3/4 506/3/4
f 505/5/4 499/5/4 506/5/4
f 506/3/4 500/3/4 507/3/4
f 501/2/4 502/2/4 509/2/4
f 502/5/4 503/5/4 510/5/4
f 509/2/4 502/2/4 510/2/4
f 503/5/4 504/5/4 510/5/4
f 510/5/4 504/5/4 511/5/4
f 511/5/4 504/5/4 512/5/4
f 506/5/4 507/5/4 513/5/4
f 505/5/4 506/5/4 513/5/4
f 513/5/4 507/5/4 514/5/4
f 507/2/4 508/2/4 515/2/4
f 514/5/4 507/5/4 515/5/4
f 515/2/4 508/2/4 516/2/4
f 510/3/4 511/3/4 517/3/4
f 513/5/4 514/5/4 518/5/4
f 517/3/4 511/3/4 518/3/4
f 511/5/4 512/5/4 518/5/4
f 512/5/4 513/5/4 518/5/4
f 518/5/4 514/5/4 519/5/4
f 519/5/4 514/5/4 520/5/4
f 514/3/4 515/3/4 521/3/4
f 520/5/4 514/5/4 521/5/4
f 521/3/4 515/3/4 522/3/4
f 518/3/4 519/3/4 523/3/4
f 519/5/4 520/5/4 524/5/4
f 523/3/4 519/3/4 524/3/4
f 520/3/4 521/3/4 525/3/4
f 524/5/4 520/5/4 525/5/4
f 525/3/4 521/3/4 526/3/4
f 524/2/4 525/2/4 527/2/4
f 527/2/4 525/2/4 528/2/4
f 531/2/5 530/2/5 529/2/5
f 532/2/5 530/2/5 531/2/5
f 535/2/5 534/2/5 533/2/5
f 536/2/5 534/2/5 535/2/5
f 539/2/5 538/2/5 537/2/5
f 540/2/5 538/2/5 539/2/5
f 543/2/5 542/2/5 541/2/5
f 544/2/5 542/2/5 543/2/5
f 547/2/5 546/2/5 545/2/5
f 548/2/5 546/2/5 547/2/5
f 551/2/5 550/2/5 549/2/5
f 552/2/5 550/2/5 551/2/5
f 555/2/5 554/2/5 553/2/5
f 556/2/5 554/2/5 555/2/5
f 559/2/5 558/2/5 557/2/5
f 560/2/5 558/2/5 559/2/5
f 563/2/5 562/2/5 561/2/5
f 564/2/5 562/2/5 563/2/5
f 567/2/5 566/2/5 565/2/5
f 568/2/5 566/2/5 567/2/5
f 571/3/5 570/3/5 569/3/5
f 572/3/5 570/3/5 571/3/5
f 573/3/5 571/3/5 569/3/5
f 574/3/5 570/3/5 572/3/5
f 575/3/5 573/3/5 569/3/5
f 575/3/5 574/3/5 573/3/5
f 576/3/5 570/3/5 574/3/5
f 576/3/5 574/3/5 575/3/5
f 577/3/5 575/3/5 569/3/5
f 578/3/5 570/3/5 576/3/5
f 579/3/5 577/3/5 569/3/5
f 579/3/5 578/3/5 577/3/5
f 580/3/5 570/3/5 578/3/5
f 580/3/5 578/3/5 579/3/5
f 581/3/5 579/3/5 569/3/5
f 582/3/5 579/3/5 581/3/5
f 583/3/5 570/3/5 580/3/5
f 584/3/5 570/3/5 583/3/5
f 588/2/5 586/2/5 585/2/5
f 589/2/5 586/2/5 588/2/5
f 591/3/5 588/3/5 587/3/5
f 592/3/5 588/3/5 591/3/5
f 593/3/5 590/3/5 589/3/5
f 594/3/5 590/3/5 593/3/5
f 597/1/5 596/1/5 595/1/5
f 598/1/5 596/1/5 597/1/5
f 604/2/5 600/2/5 599/2/5
f 605/2/5 602/2/5 601/2/5
f 608/2/5 604/2/5 603/2/5
f 609/2/5 606/2/5 605/2/5
f 611/2/5 608/2/5 607/2/5
f 612/2/5 600/2/5 604/2/5
f 612/2/5 608/2/5 611/2/5
f 612/2/5 604/2/5 608/2/5
f 613/2/5 610/2/5 609/2/5
f 613/2/5 605/2/5 601/2/5
f 613/2/5 609/2/5 605/2/5
f 614/2/5 610/2/5 613/2/5
f 620/2/5 616/2/5 615/2/5
f 621/2/5 618/2/5 617/2/5
f 624/2/5 620/2/5 619/2/5
f 625/2/5 622/2/5 621/2/5
f 627/2/5 624/2/5 623/2/5
f 628/2/5 616/2/5 620/2/5
f 628/2/5 624/2/5 627/2/5
f 628/2/5 620/2/5 624/2/5
f 629/2/5 626/2/5 625/2/5
f 629/2/5 621/2/5 617/2/5
f 629/2/5 625/2/5 621/2/5
f 630/2/5 626/2/5 629/2/5
f 636/2/5 632/2/5 631/2/5
f 637/2/5 634/2/5 633/2/5
f 640/2/5 636/2/5 635/2/5
f 641/2/5 638/2/5 637/2/5
f 644/2/5 640/2/5 639/2/5
f 645/2/5 642/2/5 641/2/5
f 647/2/5 644/2/5 643/2/5
f 648/2/5 640/2/5 644/2/5
f 648/2/5 644/2/5 647/2/5
f 648/2/5 632/2/5 636/2/5
f 648/2/5 636/2/5 640/2/5
f 649/2/5 645/2/5 641/2/5
f 649/2/5 646/2/5 645/2/5
f 649/2/5 641/2/5 637/2/5
f 649/2/5 637/2/5 633/2/5
f 650/2/5 646/2/5 649/2/5
f 653/4/5 652/4/5 651/4/5
f 654/4/5 652/4/5 653/4/5
f 657/5/5 656/5/5 655/5/5
f 658/5/5 656/5/5 657/5/5
f 659/4/6 660/4/6 661/4/6
f 661/4/6 660/4/6 662/4/6
f 663/5/6 664/5/6 665/5/6
f 665/5/6 664/5/6 666/5/6
f 667/1/6 668/1/6 669/1/6
f 669/1/6 668/1/6 670/1/6
f 671/2/6 672/2/6 676/2/6
f 673/2/6 674/2/6 677/2/6
f 675/2/6 676/2/6 680/2/6
f 677/2/6 678/2/6 681/2/6
f 679/2/6 680/2/6 683/2/6
f 676/2/6 672/2/6 684/2/6
f 683/2/6 680/2/6 684/2/6
f 680/2/6 676/2/6 684/2/6
f 681/2/6 682/2/6 685/2/6
f 673/2/6 677/2/6 685/2/6
f 677/2/6 681/2/6 685/2/6
f 685/2/6 682/2/6 686/2/6
f 687/2/6 688/2/6 692/2/6
f 689/2/6 690/2/6 693/2/6
f 691/2/6 692/2/6 696/2/6
f 693/2/6 694/2/6 697/2/6
f 695/2/6 696/2/6 699/2/6
f 692/2/6 688/2/6 700/2/6
f 699/2/6 696/2/6 700/2/6
f 696/2/6 692/2/6 700/2/6
f 697/2/6 698/2/6 701/2/6
f 689/2/6 693/2/6 701/2/6
f 693/2/6 697/2/6 701/2/6
f 701/2/6 698/2/6 702/2/6
f 703/2/6 704/2/6 708/2/6
f 705/2/6 706/2/6 709/2/6
f 707/2/6 708/2/6 712/2/6
f 709/2/6 710/2/6 713/2/6
f 711/2/6 712/2/6 716/2/6
f 713/2/6 714/2/6 717/2/6
f 715/2/6 716/2/6 719/2/6
f 716/2/6 712/2/6 720/2/6
f 719/2/6 716/2/6 720/2/6
f 708/2/6 704/2/6 720/2/6
f 712/2/6 708/2/6 720/2/6
f 713/2/6 717/2/6 721/2/6
f 717/2/6 718/2/6 721/2/6
f 709/2/6 713/2/6 721/2/6
f 705/2/6 709/2/6 721/2/6
f 721/2/6 718/2/6 722/2/6
f 723/2/6 724/2/6 726/2/6
f 726/2/6 724/2/6 727/2/6
f 725/3/6 726/3/6 729/3/6
f 729/3/6 726/3/6 730/3/6
f 727/3/6 728/3/6 731/3/6
f 731/3/6 728/3/6 732/3/6
f 733/3/6 734/3/6 735/3/6
f 735/3/6 734/3/6 736/3/6
f 733/3/6 735/3/6 737/3/6
f 736/3/6 734/3/6 738/3/6
f 733/3/6 737/3/6 739/3/6
f 737/3/6 738/3/6 739/3/6
f 738/3/6 734/3/6 740/3/6
f 739/3/6 738/3/6 740/3/6
f 733/3/6 739/3/6 741/3/6
f 740/3/6 734/3/6 742/3/6
f 733/3/6 741/3/6 743/3/6
f 741/3/6 742/3/6 743/3/6
f 742/3/6 734/3/6 744/3/6
f 743/3/6 742/3/6 744/3/6
f 733/3/6 743/3/6 745/3/6
f 745/3/6 743/3/6 746/3/6
f 744/3/6 734/3/6 747/3/6
f 747/3/6 734/3/6 748/3/6
f 749/2/6 750/2/6 751/2/6
f 751/2/6 750/2/6 752/2/6
f 753/2/6 754/2/6 755/2/6
f 755/2/6 754/2/6 756/2/6
f 757/2/6 758/2/6 759/2/6
f 759/2/6 758/2/6 760/2/6
f 761/2/6 762/2/6 763/2/6
f 763/2/6 762/2/6 764/2/6
f 765/2/6 766/2/6 767/2/6
f 767/2/6 766/2/6 768/2/6
f 769/2/6 770/2/6 771/2/6
f 771/2/6 770/2/6 772/2/6
f 773/2/6 774/2/6 775/2/6
f 775/2/6 774/2/6 776/2/6
f 777/2/6 778/2/6 779/2/6
f 779/2/6 778/2/6 780/2/6
f 781/2/6 782/2/6 783/2/6
f 783/2/6 782/2/6 784/2/6
f 785/2/6 786/2/6 787/2/6
f 787/2/6 786/2/6 788/2/6
