# MagicaVoxel @ ephtracy

# material
mtllib missile.mtl
usemtl palette

# normals
vn -1 0 0
vn 1 0 0
vn 0 0 1
vn 0 0 -1
vn 0 -1 0
vn 0 1 0

# texcoords
vt 0.689453 0.5
vt 0.783203 0.5
vt 0.908203 0.5
vt 0.974609 0.5

# verts
v -6.5 0 0.5
v -6.5 0 -0.5
v -6.5 1 0.5
v -6.5 1 -0.5
v -5.5 1 0.5
v -5.5 1 -0.5
v -5.5 2 0.5
v -5.5 2 -0.5
v -5.5 19 0.5
v -5.5 19 -0.5
v -5.5 20 0.5
v -5.5 20 -0.5
v -5.5 24 0.5
v -5.5 24 -0.5
v -5.5 25 0.5
v -5.5 25 -0.5
v -4.5 2 0.5
v -4.5 2 -0.5
v -4.5 3 0.5
v -4.5 3 -0.5
v -4.5 20 0.5
v -4.5 20 -0.5
v -4.5 21 0.5
v -4.5 21 -0.5
v -4.5 25 0.5
v -4.5 25 -0.5
v -4.5 26 0.5
v -4.5 26 -0.5
v -3.5 3 0.5
v -3.5 3 -0.5
v -3.5 4 0.5
v -3.5 4 -0.5
v -3.5 21 0.5
v -3.5 21 -0.5
v -3.5 22 0.5
v -3.5 22 -0.5
v -3.5 26 0.5
v -3.5 26 -0.5
v -3.5 27 0.5
v -3.5 27 -0.5
v -2.5 0 1.5
v -2.5 0 0.5
v -2.5 0 -0.5
v -2.5 0 -1.5
v -2.5 4 0.5
v -2.5 4 -0.5
v -2.5 19 0.5
v -2.5 19 -0.5
v -2.5 22 0.5
v -2.5 22 -0.5
v -2.5 24 0.5
v -2.5 24 -0.5
v -2.5 27 0.5
v -2.5 27 -0.5
v -2.5 28 1.5
v -2.5 28 -1.5
v -1.5 0 2.5
v -1.5 0 1.5
v -1.5 0 -1.5
v -1.5 0 -2.5
v -1.5 28 2.5
v -1.5 28 1.5
v -1.5 28 -1.5
v -1.5 28 -2.5
v -1.5 29 1.5
v -1.5 29 -1.5
v -0.5 0 6.5
v -0.5 0 2.5
v -0.5 0 -2.5
v -0.5 0 -6.5
v -0.5 1 6.5
v -0.5 1 5.5
v -0.5 1 -5.5
v -0.5 1 -6.5
v -0.5 2 5.5
v -0.5 2 4.5
v -0.5 2 -4.5
v -0.5 2 -5.5
v -0.5 3 4.5
v -0.5 3 3.5
v -0.5 3 -3.5
v -0.5 3 -4.5
v -0.5 4 3.5
v -0.5 4 2.5
v -0.5 4 -2.5
v -0.5 4 -3.5
v -0.5 19 5.5
v -0.5 19 2.5
v -0.5 19 -2.5
v -0.5 19 -5.5
v -0.5 20 5.5
v -0.5 20 4.5
v -0.5 20 -4.5
v -0.5 20 -5.5
v -0.5 21 4.5
v -0.5 21 3.5
v -0.5 21 -3.5
v -0.5 21 -4.5
v -0.5 22 3.5
v -0.5 22 2.5
v -0.5 22 -2.5
v -0.5 22 -3.5
v -0.5 24 5.5
v -0.5 24 2.5
v -0.5 24 -2.5
v -0.5 24 -5.5
v -0.5 25 5.5
v -0.5 25 4.5
v -0.5 25 -4.5
v -0.5 25 -5.5
v -0.5 26 4.5
v -0.5 26 3.5
v -0.5 26 -3.5
v -0.5 26 -4.5
v -0.5 27 3.5
v -0.5 27 2.5
v -0.5 27 -2.5
v -0.5 27 -3.5
v -0.5 29 0.5
v -0.5 29 -0.5
v -0.5 30 0.5
v -0.5 30 -0.5
v 0.5 0 0.5
v 0.5 0 -0.5
v 0.5 27 0.5
v 0.5 27 -0.5
v -0.5 0 0.5
v -0.5 0 -0.5
v -0.5 27 0.5
v -0.5 27 -0.5
v 0.5 0 6.5
v 0.5 0 2.5
v 0.5 0 -2.5
v 0.5 0 -6.5
v 0.5 1 6.5
v 0.5 1 5.5
v 0.5 1 -5.5
v 0.5 1 -6.5
v 0.5 2 5.5
v 0.5 2 4.5
v 0.5 2 -4.5
v 0.5 2 -5.5
v 0.5 3 4.5
v 0.5 3 3.5
v 0.5 3 -3.5
v 0.5 3 -4.5
v 0.5 4 3.5
v 0.5 4 2.5
v 0.5 4 -2.5
v 0.5 4 -3.5
v 0.5 19 5.5
v 0.5 19 2.5
v 0.5 19 -2.5
v 0.5 19 -5.5
v 0.5 20 5.5
v 0.5 20 4.5
v 0.5 20 -4.5
v 0.5 20 -5.5
v 0.5 21 4.5
v 0.5 21 3.5
v 0.5 21 -3.5
v 0.5 21 -4.5
v 0.5 22 3.5
v 0.5 22 2.5
v 0.5 22 -2.5
v 0.5 22 -3.5
v 0.5 24 5.5
v 0.5 24 2.5
v 0.5 24 -2.5
v 0.5 24 -5.5
v 0.5 25 5.5
v 0.5 25 4.5
v 0.5 25 -4.5
v 0.5 25 -5.5
v 0.5 26 4.5
v 0.5 26 3.5
v 0.5 26 -3.5
v 0.5 26 -4.5
v 0.5 27 3.5
v 0.5 27 2.5
v 0.5 27 -2.5
v 0.5 27 -3.5
v 0.5 29 0.5
v 0.5 29 -0.5
v 0.5 30 0.5
v 0.5 30 -0.5
v 1.5 0 2.5
v 1.5 0 1.5
v 1.5 0 -1.5
v 1.5 0 -2.5
v 1.5 28 2.5
v 1.5 28 1.5
v 1.5 28 -1.5
v 1.5 28 -2.5
v 1.5 29 1.5
v 1.5 29 -1.5
v 2.5 0 1.5
v 2.5 0 0.5
v 2.5 0 -0.5
v 2.5 0 -1.5
v 2.5 4 0.5
v 2.5 4 -0.5
v 2.5 19 0.5
v 2.5 19 -0.5
v 2.5 22 0.5
v 2.5 22 -0.5
v 2.5 24 0.5
v 2.5 24 -0.5
v 2.5 27 0.5
v 2.5 27 -0.5
v 2.5 28 1.5
v 2.5 28 -1.5
v 3.5 3 0.5
v 3.5 3 -0.5
v 3.5 4 0.5
v 3.5 4 -0.5
v 3.5 21 0.5
v 3.5 21 -0.5
v 3.5 22 0.5
v 3.5 22 -0.5
v 3.5 26 0.5
v 3.5 26 -0.5
v 3.5 27 0.5
v 3.5 27 -0.5
v 4.5 2 0.5
v 4.5 2 -0.5
v 4.5 3 0.5
v 4.5 3 -0.5
v 4.5 20 0.5
v 4.5 20 -0.5
v 4.5 21 0.5
v 4.5 21 -0.5
v 4.5 25 0.5
v 4.5 25 -0.5
v 4.5 26 0.5
v 4.5 26 -0.5
v 5.5 1 0.5
v 5.5 1 -0.5
v 5.5 2 0.5
v 5.5 2 -0.5
v 5.5 19 0.5
v 5.5 19 -0.5
v 5.5 20 0.5
v 5.5 20 -0.5
v 5.5 24 0.5
v 5.5 24 -0.5
v 5.5 25 0.5
v 5.5 25 -0.5
v 6.5 0 0.5
v 6.5 0 -0.5
v 6.5 1 0.5
v 6.5 1 -0.5
v -0.5 0 6.5
v -0.5 1 6.5
v 0.5 0 6.5
v 0.5 1 6.5
v -0.5 1 5.5
v -0.5 2 5.5
v -0.5 19 5.5
v -0.5 20 5.5
v -0.5 24 5.5
v -0.5 25 5.5
v 0.5 1 5.5
v 0.5 2 5.5
v 0.5 19 5.5
v 0.5 20 5.5
v 0.5 24 5.5
v 0.5 25 5.5
v -0.5 2 4.5
v -0.5 3 4.5
v -0.5 20 4.5
v -0.5 21 4.5
v -0.5 25 4.5
v -0.5 26 4.5
v 0.5 2 4.5
v 0.5 3 4.5
v 0.5 20 4.5
v 0.5 21 4.5
v 0.5 25 4.5
v 0.5 26 4.5
v -0.5 3 3.5
v -0.5 4 3.5
v -0.5 21 3.5
v -0.5 22 3.5
v -0.5 26 3.5
v -0.5 27 3.5
v 0.5 3 3.5
v 0.5 4 3.5
v 0.5 21 3.5
v 0.5 22 3.5
v 0.5 26 3.5
v 0.5 27 3.5
v -1.5 0 2.5
v -1.5 28 2.5
v -0.5 0 2.5
v -0.5 4 2.5
v -0.5 19 2.5
v -0.5 22 2.5
v -0.5 24 2.5
v -0.5 27 2.5
v 0.5 0 2.5
v 0.5 4 2.5
v 0.5 19 2.5
v 0.5 22 2.5
v 0.5 24 2.5
v 0.5 27 2.5
v 1.5 0 2.5
v 1.5 28 2.5
v -2.5 0 1.5
v -2.5 28 1.5
v -1.5 0 1.5
v -1.5 28 1.5
v -1.5 29 1.5
v 1.5 0 1.5
v 1.5 28 1.5
v 1.5 29 1.5
v 2.5 0 1.5
v 2.5 28 1.5
v -6.5 0 0.5
v -6.5 1 0.5
v -5.5 1 0.5
v -5.5 2 0.5
v -5.5 19 0.5
v -5.5 20 0.5
v -5.5 24 0.5
v -5.5 25 0.5
v -4.5 2 0.5
v -4.5 3 0.5
v -4.5 20 0.5
v -4.5 21 0.5
v -4.5 25 0.5
v -4.5 26 0.5
v -3.5 3 0.5
v -3.5 4 0.5
v -3.5 21 0.5
v -3.5 22 0.5
v -3.5 26 0.5
v -3.5 27 0.5
v -2.5 0 0.5
v -2.5 4 0.5
v -2.5 19 0.5
v -2.5 22 0.5
v -2.5 24 0.5
v -2.5 27 0.5
v -0.5 29 0.5
v -0.5 30 0.5
v 0.5 29 0.5
v 0.5 30 0.5
v 2.5 0 0.5
v 2.5 4 0.5
v 2.5 19 0.5
v 2.5 22 0.5
v 2.5 24 0.5
v 2.5 27 0.5
v 3.5 3 0.5
v 3.5 4 0.5
v 3.5 21 0.5
v 3.5 22 0.5
v 3.5 26 0.5
v 3.5 27 0.5
v 4.5 2 0.5
v 4.5 3 0.5
v 4.5 20 0.5
v 4.5 21 0.5
v 4.5 25 0.5
v 4.5 26 0.5
v 5.5 1 0.5
v 5.5 2 0.5
v 5.5 19 0.5
v 5.5 20 0.5
v 5.5 24 0.5
v 5.5 25 0.5
v 6.5 0 0.5
v 6.5 1 0.5
v -0.5 0 -0.5
v -0.5 27 -0.5
v 0.5 0 -0.5
v 0.5 27 -0.5
v -0.5 0 0.5
v -0.5 27 0.5
v 0.5 0 0.5
v 0.5 27 0.5
v -6.5 0 -0.5
v -6.5 1 -0.5
v -5.5 1 -0.5
v -5.5 2 -0.5
v -5.5 19 -0.5
v -5.5 20 -0.5
v -5.5 24 -0.5
v -5.5 25 -0.5
v -4.5 2 -0.5
v -4.5 3 -0.5
v -4.5 20 -0.5
v -4.5 21 -0.5
v -4.5 25 -0.5
v -4.5 26 -0.5
v -3.5 3 -0.5
v -3.5 4 -0.5
v -3.5 21 -0.5
v -3.5 22 -0.5
v -3.5 26 -0.5
v -3.5 27 -0.5
v -2.5 0 -0.5
v -2.5 4 -0.5
v -2.5 19 -0.5
v -2.5 22 -0.5
v -2.5 24 -0.5
v -2.5 27 -0.5
v -0.5 29 -0.5
v -0.5 30 -0.5
v 0.5 29 -0.5
v 0.5 30 -0.5
v 2.5 0 -0.5
v 2.5 4 -0.5
v 2.5 19 -0.5
v 2.5 22 -0.5
v 2.5 24 -0.5
v 2.5 27 -0.5
v 3.5 3 -0.5
v 3.5 4 -0.5
v 3.5 21 -0.5
v 3.5 22 -0.5
v 3.5 26 -0.5
v 3.5 27 -0.5
v 4.5 2 -0.5
v 4.5 3 -0.5
v 4.5 20 -0.5
v 4.5 21 -0.5
v 4.5 25 -0.5
v 4.5 26 -0.5
v 5.5 1 -0.5
v 5.5 2 -0.5
v 5.5 19 -0.5
v 5.5 20 -0.5
v 5.5 24 -0.5
v 5.5 25 -0.5
v 6.5 0 -0.5
v 6.5 1 -0.5
v -2.5 0 -1.5
v -2.5 28 -1.5
v -1.5 0 -1.5
v -1.5 28 -1.5
v -1.5 29 -1.5
v 1.5 0 -1.5
v 1.5 28 -1.5
v 1.5 29 -1.5
v 2.5 0 -1.5
v 2.5 28 -1.5
v -1.5 0 -2.5
v -1.5 28 -2.5
v -0.5 0 -2.5
v -0.5 4 -2.5
v -0.5 19 -2.5
v -0.5 22 -2.5
v -0.5 24 -2.5
v -0.5 27 -2.5
v 0.5 0 -2.5
v 0.5 4 -2.5
v 0.5 19 -2.5
v 0.5 22 -2.5
v 0.5 24 -2.5
v 0.5 27 -2.5
v 1.5 0 -2.5
v 1.5 28 -2.5
v -0.5 3 -3.5
v -0.5 4 -3.5
v -0.5 21 -3.5
v -0.5 22 -3.5
v -0.5 26 -3.5
v -0.5 27 -3.5
v 0.5 3 -3.5
v 0.5 4 -3.5
v 0.5 21 -3.5
v 0.5 22 -3.5
v 0.5 26 -3.5
v 0.5 27 -3.5
v -0.5 2 -4.5
v -0.5 3 -4.5
v -0.5 20 -4.5
v -0.5 21 -4.5
v -0.5 25 -4.5
v -0.5 26 -4.5
v 0.5 2 -4.5
v 0.5 3 -4.5
v 0.5 20 -4.5
v 0.5 21 -4.5
v 0.5 25 -4.5
v 0.5 26 -4.5
v -0.5 1 -5.5
v -0.5 2 -5.5
v -0.5 19 -5.5
v -0.5 20 -5.5
v -0.5 24 -5.5
v -0.5 25 -5.5
v 0.5 1 -5.5
v 0.5 2 -5.5
v 0.5 19 -5.5
v 0.5 20 -5.5
v 0.5 24 -5.5
v 0.5 25 -5.5
v -0.5 0 -6.5
v -0.5 1 -6.5
v 0.5 0 -6.5
v 0.5 1 -6.5
v -0.5 0 6.5
v 0.5 0 6.5
v -1.5 0 2.5
v -0.5 0 2.5
v 0.5 0 2.5
v 1.5 0 2.5
v -2.5 0 1.5
v -1.5 0 1.5
v -0.5 0 1.5
v 0.5 0 1.5
v 1.5 0 1.5
v 2.5 0 1.5
v -6.5 0 0.5
v -2.5 0 0.5
v -1.5 0 0.5
v -0.5 0 0.5
v 0.5 0 0.5
v 1.5 0 0.5
v 2.5 0 0.5
v 6.5 0 0.5
v -6.5 0 -0.5
v -2.5 0 -0.5
v -1.5 0 -0.5
v -0.5 0 -0.5
v 0.5 0 -0.5
v 1.5 0 -0.5
v 2.5 0 -0.5
v 6.5 0 -0.5
v -2.5 0 -1.5
v -1.5 0 -1.5
v -0.5 0 -1.5
v 0.5 0 -1.5
v 1.5 0 -1.5
v 2.5 0 -1.5
v -1.5 0 -2.5
v -0.5 0 -2.5
v 0.5 0 -2.5
v 1.5 0 -2.5
v -0.5 0 -6.5
v 0.5 0 -6.5
v -0.5 19 5.5
v 0.5 19 5.5
v -0.5 19 2.5
v 0.5 19 2.5
v -5.5 19 0.5
v -2.5 19 0.5
v 2.5 19 0.5
v 5.5 19 0.5
v -5.5 19 -0.5
v -2.5 19 -0.5
v 2.5 19 -0.5
v 5.5 19 -0.5
v -0.5 19 -2.5
v 0.5 19 -2.5
v -0.5 19 -5.5
v 0.5 19 -5.5
v -0.5 24 5.5
v 0.5 24 5.5
v -0.5 24 2.5
v 0.5 24 2.5
v -5.5 24 0.5
v -2.5 24 0.5
v 2.5 24 0.5
v 5.5 24 0.5
v -5.5 24 -0.5
v -2.5 24 -0.5
v 2.5 24 -0.5
v 5.5 24 -0.5
v -0.5 24 -2.5
v 0.5 24 -2.5
v -0.5 24 -5.5
v 0.5 24 -5.5
v -0.5 27 0.5
v 0.5 27 0.5
v -0.5 27 -0.5
v 0.5 27 -0.5
v -0.5 1 6.5
v 0.5 1 6.5
v -0.5 1 5.5
v 0.5 1 5.5
v -6.5 1 0.5
v -5.5 1 0.5
v 5.5 1 0.5
v 6.5 1 0.5
v -6.5 1 -0.5
v -5.5 1 -0.5
v 5.5 1 -0.5
v 6.5 1 -0.5
v -0.5 1 -5.5
v 0.5 1 -5.5
v -0.5 1 -6.5
v 0.5 1 -6.5
v -0.5 2 5.5
v 0.5 2 5.5
v -0.5 2 4.5
v 0.5 2 4.5
v -5.5 2 0.5
v -4.5 2 0.5
v 4.5 2 0.5
v 5.5 2 0.5
v -5.5 2 -0.5
v -4.5 2 -0.5
v 4.5 2 -0.5
v 5.5 2 -0.5
v -0.5 2 -4.5
v 0.5 2 -4.5
v -0.5 2 -5.5
v 0.5 2 -5.5
v -0.5 3 4.5
v 0.5 3 4.5
v -0.5 3 3.5
v 0.5 3 3.5
v -4.5 3 0.5
v -3.5 3 0.5
v 3.5 3 0.5
v 4.5 3 0.5
v -4.5 3 -0.5
v -3.5 3 -0.5
v 3.5 3 -0.5
v 4.5 3 -0.5
v -0.5 3 -3.5
v 0.5 3 -3.5
v -0.5 3 -4.5
v 0.5 3 -4.5
v -0.5 4 3.5
v 0.5 4 3.5
v -0.5 4 2.5
v 0.5 4 2.5
v -3.5 4 0.5
v -2.5 4 0.5
v 2.5 4 0.5
v 3.5 4 0.5
v -3.5 4 -0.5
v -2.5 4 -0.5
v 2.5 4 -0.5
v 3.5 4 -0.5
v -0.5 4 -2.5
v 0.5 4 -2.5
v -0.5 4 -3.5
v 0.5 4 -3.5
v -0.5 20 5.5
v 0.5 20 5.5
v -0.5 20 4.5
v 0.5 20 4.5
v -5.5 20 0.5
v -4.5 20 0.5
v 4.5 20 0.5
v 5.5 20 0.5
v -5.5 20 -0.5
v -4.5 20 -0.5
v 4.5 20 -0.5
v 5.5 20 -0.5
v -0.5 20 -4.5
v 0.5 20 -4.5
v -0.5 20 -5.5
v 0.5 20 -5.5
v -0.5 21 4.5
v 0.5 21 4.5
v -0.5 21 3.5
v 0.5 21 3.5
v -4.5 21 0.5
v -3.5 21 0.5
v 3.5 21 0.5
v 4.5 21 0.5
v -4.5 21 -0.5
v -3.5 21 -0.5
v 3.5 21 -0.5
v 4.5 21 -0.5
v -0.5 21 -3.5
v 0.5 21 -3.5
v -0.5 21 -4.5
v 0.5 21 -4.5
v -0.5 22 3.5
v 0.5 22 3.5
v -0.5 22 2.5
v 0.5 22 2.5
v -3.5 22 0.5
v -2.5 22 0.5
v 2.5 22 0.5
v 3.5 22 0.5
v -3.5 22 -0.5
v -2.5 22 -0.5
v 2.5 22 -0.5
v 3.5 22 -0.5
v -0.5 22 -2.5
v 0.5 22 -2.5
v -0.5 22 -3.5
v 0.5 22 -3.5
v -0.5 25 5.5
v 0.5 25 5.5
v -0.5 25 4.5
v 0.5 25 4.5
v -5.5 25 0.5
v -4.5 25 0.5
v 4.5 25 0.5
v 5.5 25 0.5
v -5.5 25 -0.5
v -4.5 25 -0.5
v 4.5 25 -0.5
v 5.5 25 -0.5
v -0.5 25 -4.5
v 0.5 25 -4.5
v -0.5 25 -5.5
v 0.5 25 -5.5
v -0.5 26 4.5
v 0.5 26 4.5
v -0.5 26 3.5
v 0.5 26 3.5
v -4.5 26 0.5
v -3.5 26 0.5
v 3.5 26 0.5
v 4.5 26 0.5
v -4.5 26 -0.5
v -3.5 26 -0.5
v 3.5 26 -0.5
v 4.5 26 -0.5
v -0.5 26 -3.5
v 0.5 26 -3.5
v -0.5 26 -4.5
v 0.5 26 -4.5
v -0.5 27 3.5
v 0.5 27 3.5
v -0.5 27 2.5
v 0.5 27 2.5
v -3.5 27 0.5
v -2.5 27 0.5
v 2.5 27 0.5
v 3.5 27 0.5
v -3.5 27 -0.5
v -2.5 27 -0.5
v 2.5 27 -0.5
v 3.5 27 -0.5
v -0.5 27 -2.5
v 0.5 27 -2.5
v -0.5 27 -3.5
v 0.5 27 -3.5
v -1.5 28 2.5
v 1.5 28 2.5
v -2.5 28 1.5
v -1.5 28 1.5
v 1.5 28 1.5
v 2.5 28 1.5
v -2.5 28 -1.5
v -1.5 28 -1.5
v 1.5 28 -1.5
v 2.5 28 -1.5
v -1.5 28 -2.5
v 1.5 28 -2.5
v -1.5 29 1.5
v 1.5 29 1.5
v -0.5 29 0.5
v 0.5 29 0.5
v -0.5 29 -0.5
v 0.5 29 -0.5
v -1.5 29 -1.5
v 1.5 29 -1.5
v -0.5 30 0.5
v 0.5 30 0.5
v -0.5 30 -0.5
v 0.5 30 -0.5

# faces
f 3/2/1 2/2/1 1/2/1
f 4/2/1 2/2/1 3/2/1
f 7/2/1 6/2/1 5/2/1
f 8/2/1 6/2/1 7/2/1
f 11/2/1 10/2/1 9/2/1
f 12/2/1 10/2/1 11/2/1
f 15/2/1 14/2/1 13/2/1
f 16/2/1 14/2/1 15/2/1
f 19/2/1 18/2/1 17/2/1
f 20/2/1 18/2/1 19/2/1
f 23/2/1 22/2/1 21/2/1
f 24/2/1 22/2/1 23/2/1
f 27/2/1 26/2/1 25/2/1
f 28/2/1 26/2/1 27/2/1
f 31/2/1 30/2/1 29/2/1
f 32/2/1 30/2/1 31/2/1
f 35/2/1 34/2/1 33/2/1
f 36/2/1 34/2/1 35/2/1
f 39/2/1 38/2/1 37/2/1
f 40/2/1 38/2/1 39/2/1
f 45/3/1 42/3/1 41/3/1
f 46/3/1 44/3/1 43/3/1
f 47/3/1 45/3/1 41/3/1
f 47/3/1 46/3/1 45/3/1
f 48/3/1 44/3/1 46/3/1
f 48/3/1 46/3/1 47/3/1
f 49/3/1 47/3/1 41/3/1
f 50/3/1 44/3/1 48/3/1
f 51/3/1 49/3/1 41/3/1
f 51/3/1 50/3/1 49/3/1
f 52/3/1 44/3/1 50/3/1
f 52/3/1 50/3/1 51/3/1
f 53/3/1 51/3/1 41/3/1
f 54/3/1 44/3/1 52/3/1
f 55/3/1 53/3/1 41/3/1
f 55/3/1 54/3/1 53/3/1
f 56/3/1 44/3/1 54/3/1
f 56/3/1 54/3/1 55/3/1
f 61/3/1 58/3/1 57/3/1
f 62/3/1 58/3/1 61/3/1
f 63/3/1 60/3/1 59/3/1
f 64/3/1 60/3/1 63/3/1
f 65/2/1 63/2/1 62/2/1
f 66/2/1 63/2/1 65/2/1
f 71/2/1 68/2/1 67/2/1
f 72/2/1 68/2/1 71/2/1
f 73/2/1 70/2/1 69/2/1
f 74/2/1 70/2/1 73/2/1
f 75/2/1 68/2/1 72/2/1
f 76/2/1 68/2/1 75/2/1
f 77/2/1 73/2/1 69/2/1
f 78/2/1 73/2/1 77/2/1
f 79/2/1 68/2/1 76/2/1
f 80/2/1 68/2/1 79/2/1
f 81/2/1 77/2/1 69/2/1
f 82/2/1 77/2/1 81/2/1
f 83/2/1 68/2/1 80/2/1
f 84/2/1 68/2/1 83/2/1
f 85/2/1 81/2/1 69/2/1
f 86/2/1 81/2/1 85/2/1
f 91/2/1 88/2/1 87/2/1
f 92/2/1 88/2/1 91/2/1
f 93/2/1 90/2/1 89/2/1
f 94/2/1 90/2/1 93/2/1
f 95/2/1 88/2/1 92/2/1
f 96/2/1 88/2/1 95/2/1
f 97/2/1 93/2/1 89/2/1
f 98/2/1 93/2/1 97/2/1
f 99/2/1 88/2/1 96/2/1
f 100/2/1 88/2/1 99/2/1
f 101/2/1 97/2/1 89/2/1
f 102/2/1 97/2/1 101/2/1
f 107/2/1 104/2/1 103/2/1
f 108/2/1 104/2/1 107/2/1
f 109/2/1 106/2/1 105/2/1
f 110/2/1 106/2/1 109/2/1
f 111/2/1 104/2/1 108/2/1
f 112/2/1 104/2/1 111/2/1
f 113/2/1 109/2/1 105/2/1
f 114/2/1 109/2/1 113/2/1
f 115/2/1 104/2/1 112/2/1
f 116/2/1 104/2/1 115/2/1
f 117/2/1 113/2/1 105/2/1
f 118/2/1 113/2/1 117/2/1
f 121/1/1 120/1/1 119/1/1
f 122/1/1 120/1/1 121/1/1
f 125/4/1 124/4/1 123/4/1
f 126/4/1 124/4/1 125/4/1
f 127/4/2 128/4/2 129/4/2
f 129/4/2 128/4/2 130/4/2
f 131/2/2 132/2/2 135/2/2
f 135/2/2 132/2/2 136/2/2
f 133/2/2 134/2/2 137/2/2
f 137/2/2 134/2/2 138/2/2
f 136/2/2 132/2/2 139/2/2
f 139/2/2 132/2/2 140/2/2
f 133/2/2 137/2/2 141/2/2
f 141/2/2 137/2/2 142/2/2
f 140/2/2 132/2/2 143/2/2
f 143/2/2 132/2/2 144/2/2
f 133/2/2 141/2/2 145/2/2
f 145/2/2 141/2/2 146/2/2
f 144/2/2 132/2/2 147/2/2
f 147/2/2 132/2/2 148/2/2
f 133/2/2 145/2/2 149/2/2
f 149/2/2 145/2/2 150/2/2
f 151/2/2 152/2/2 155/2/2
f 155/2/2 152/2/2 156/2/2
f 153/2/2 154/2/2 157/2/2
f 157/2/2 154/2/2 158/2/2
f 156/2/2 152/2/2 159/2/2
f 159/2/2 152/2/2 160/2/2
f 153/2/2 157/2/2 161/2/2
f 161/2/2 157/2/2 162/2/2
f 160/2/2 152/2/2 163/2/2
f 163/2/2 152/2/2 164/2/2
f 153/2/2 161/2/2 165/2/2
f 165/2/2 161/2/2 166/2/2
f 167/2/2 168/2/2 171/2/2
f 171/2/2 168/2/2 172/2/2
f 169/2/2 170/2/2 173/2/2
f 173/2/2 170/2/2 174/2/2
f 172/2/2 168/2/2 175/2/2
f 175/2/2 168/2/2 176/2/2
f 169/2/2 173/2/2 177/2/2
f 177/2/2 173/2/2 178/2/2
f 176/2/2 168/2/2 179/2/2
f 179/2/2 168/2/2 180/2/2
f 169/2/2 177/2/2 181/2/2
f 181/2/2 177/2/2 182/2/2
f 183/1/2 184/1/2 185/1/2
f 185/1/2 184/1/2 186/1/2
f 187/3/2 188/3/2 191/3/2
f 191/3/2 188/3/2 192/3/2
f 189/3/2 190/3/2 193/3/2
f 193/3/2 190/3/2 194/3/2
f 192/2/2 193/2/2 195/2/2
f 195/2/2 193/2/2 196/2/2
f 197/3/2 198/3/2 201/3/2
f 199/3/2 200/3/2 202/3/2
f 197/3/2 201/3/2 203/3/2
f 201/3/2 202/3/2 203/3/2
f 202/3/2 200/3/2 204/3/2
f 203/3/2 202/3/2 204/3/2
f 197/3/2 203/3/2 205/3/2
f 204/3/2 200/3/2 206/3/2
f 197/3/2 205/3/2 207/3/2
f 205/3/2 206/3/2 207/3/2
f 206/3/2 200/3/2 208/3/2
f 207/3/2 206/3/2 208/3/2
f 197/3/2 207/3/2 209/3/2
f 208/3/2 200/3/2 210/3/2
f 197/3/2 209/3/2 211/3/2
f 209/3/2 210/3/2 211/3/2
f 210/3/2 200/3/2 212/3/2
f 211/3/2 210/3/2 212/3/2
f 213/2/2 214/2/2 215/2/2
f 215/2/2 214/2/2 216/2/2
f 217/2/2 218/2/2 219/2/2
f 219/2/2 218/2/2 220/2/2
f 221/2/2 222/2/2 223/2/2
f 223/2/2 222/2/2 224/2/2
f 225/2/2 226/2/2 227/2/2
f 227/2/2 226/2/2 228/2/2
f 229/2/2 230/2/2 231/2/2
f 231/2/2 230/2/2 232/2/2
f 233/2/2 234/2/2 235/2/2
f 235/2/2 234/2/2 236/2/2
f 237/2/2 238/2/2 239/2/2
f 239/2/2 238/2/2 240/2/2
f 241/2/2 242/2/2 243/2/2
f 243/2/2 242/2/2 244/2/2
f 245/2/2 246/2/2 247/2/2
f 247/2/2 246/2/2 248/2/2
f 249/2/2 250/2/2 251/2/2
f 251/2/2 250/2/2 252/2/2
f 255/2/3 254/2/3 253/2/3
f 256/2/3 254/2/3 255/2/3
f 263/2/3 258/2/3 257/2/3
f 264/2/3 258/2/3 263/2/3
f 265/2/3 260/2/3 259/2/3
f 266/2/3 260/2/3 265/2/3
f 267/2/3 262/2/3 261/2/3
f 268/2/3 262/2/3 267/2/3
f 275/2/3 270/2/3 269/2/3
f 276/2/3 270/2/3 275/2/3
f 277/2/3 272/2/3 271/2/3
f 278/2/3 272/2/3 277/2/3
f 279/2/3 274/2/3 273/2/3
f 280/2/3 274/2/3 279/2/3
f 287/2/3 282/2/3 281/2/3
f 288/2/3 282/2/3 287/2/3
f 289/2/3 284/2/3 283/2/3
f 290/2/3 284/2/3 289/2/3
f 291/2/3 286/2/3 285/2/3
f 292/2/3 286/2/3 291/2/3
f 295/3/3 294/3/3 293/3/3
f 296/3/3 294/3/3 295/3/3
f 297/3/3 294/3/3 296/3/3
f 298/3/3 294/3/3 297/3/3
f 299/3/3 294/3/3 298/3/3
f 300/3/3 294/3/3 299/3/3
f 302/3/3 297/3/3 296/3/3
f 303/3/3 297/3/3 302/3/3
f 304/3/3 299/3/3 298/3/3
f 305/3/3 299/3/3 304/3/3
f 306/3/3 294/3/3 300/3/3
f 307/3/3 305/3/3 304/3/3
f 307/3/3 306/3/3 305/3/3
f 307/3/3 303/3/3 302/3/3
f 307/3/3 302/3/3 301/3/3
f 307/3/3 304/3/3 303/3/3
f 308/3/3 294/3/3 306/3/3
f 308/3/3 306/3/3 307/3/3
f 311/3/3 310/3/3 309/3/3
f 312/3/3 310/3/3 311/3/3
f 315/2/3 313/2/3 312/2/3
f 316/2/3 313/2/3 315/2/3
f 317/3/3 315/3/3 314/3/3
f 318/3/3 315/3/3 317/3/3
f 321/2/3 320/2/3 319/2/3
f 327/2/3 322/2/3 321/2/3
f 329/2/3 324/2/3 323/2/3
f 331/2/3 326/2/3 325/2/3
f 333/2/3 328/2/3 327/2/3
f 335/2/3 330/2/3 329/2/3
f 337/2/3 332/2/3 331/2/3
f 339/2/3 321/2/3 319/2/3
f 339/2/3 334/2/3 333/2/3
f 339/2/3 327/2/3 321/2/3
f 339/2/3 333/2/3 327/2/3
f 340/2/3 334/2/3 339/2/3
f 341/2/3 336/2/3 335/2/3
f 341/2/3 335/2/3 329/2/3
f 341/2/3 329/2/3 323/2/3
f 342/2/3 336/2/3 341/2/3
f 343/2/3 338/2/3 337/2/3
f 343/2/3 337/2/3 331/2/3
f 343/2/3 331/2/3 325/2/3
f 344/2/3 338/2/3 343/2/3
f 347/1/3 346/1/3 345/1/3
f 348/1/3 346/1/3 347/1/3
f 355/2/3 350/2/3 349/2/3
f 356/2/3 350/2/3 355/2/3
f 357/2/3 352/2/3 351/2/3
f 358/2/3 352/2/3 357/2/3
f 359/2/3 354/2/3 353/2/3
f 360/2/3 354/2/3 359/2/3
f 361/2/3 355/2/3 349/2/3
f 362/2/3 355/2/3 361/2/3
f 363/2/3 357/2/3 351/2/3
f 364/2/3 357/2/3 363/2/3
f 365/2/3 359/2/3 353/2/3
f 366/2/3 359/2/3 365/2/3
f 367/2/3 361/2/3 349/2/3
f 368/2/3 361/2/3 367/2/3
f 369/2/3 363/2/3 351/2/3
f 370/2/3 363/2/3 369/2/3
f 371/2/3 365/2/3 353/2/3
f 372/2/3 365/2/3 371/2/3
f 373/2/3 367/2/3 349/2/3
f 374/2/3 367/2/3 373/2/3
f 377/4/3 376/4/3 375/4/3
f 378/4/3 376/4/3 377/4/3
f 379/4/4 380/4/4 381/4/4
f 381/4/4 380/4/4 382/4/4
f 383/2/4 384/2/4 385/2/4
f 385/2/4 386/2/4 391/2/4
f 387/2/4 388/2/4 393/2/4
f 389/2/4 390/2/4 395/2/4
f 391/2/4 392/2/4 397/2/4
f 393/2/4 394/2/4 399/2/4
f 395/2/4 396/2/4 401/2/4
f 383/2/4 385/2/4 403/2/4
f 397/2/4 398/2/4 403/2/4
f 385/2/4 391/2/4 403/2/4
f 391/2/4 397/2/4 403/2/4
f 403/2/4 398/2/4 404/2/4
f 399/2/4 400/2/4 405/2/4
f 393/2/4 399/2/4 405/2/4
f 387/2/4 393/2/4 405/2/4
f 405/2/4 400/2/4 406/2/4
f 401/2/4 402/2/4 407/2/4
f 395/2/4 401/2/4 407/2/4
f 389/2/4 395/2/4 407/2/4
f 407/2/4 402/2/4 408/2/4
f 409/1/4 410/1/4 411/1/4
f 411/1/4 410/1/4 412/1/4
f 413/2/4 414/2/4 419/2/4
f 419/2/4 414/2/4 420/2/4
f 415/2/4 416/2/4 421/2/4
f 421/2/4 416/2/4 422/2/4
f 417/2/4 418/2/4 423/2/4
f 423/2/4 418/2/4 424/2/4
f 413/2/4 419/2/4 425/2/4
f 425/2/4 419/2/4 426/2/4
f 415/2/4 421/2/4 427/2/4
f 427/2/4 421/2/4 428/2/4
f 417/2/4 423/2/4 429/2/4
f 429/2/4 423/2/4 430/2/4
f 413/2/4 425/2/4 431/2/4
f 431/2/4 425/2/4 432/2/4
f 415/2/4 427/2/4 433/2/4
f 433/2/4 427/2/4 434/2/4
f 417/2/4 429/2/4 435/2/4
f 435/2/4 429/2/4 436/2/4
f 413/2/4 431/2/4 437/2/4
f 437/2/4 431/2/4 438/2/4
f 439/3/4 440/3/4 441/3/4
f 441/3/4 440/3/4 442/3/4
f 442/2/4 443/2/4 445/2/4
f 445/2/4 443/2/4 446/2/4
f 444/3/4 445/3/4 447/3/4
f 447/3/4 445/3/4 448/3/4
f 449/3/4 450/3/4 451/3/4
f 451/3/4 450/3/4 452/3/4
f 452/3/4 450/3/4 453/3/4
f 453/3/4 450/3/4 454/3/4
f 454/3/4 450/3/4 455/3/4
f 455/3/4 450/3/4 456/3/4
f 452/3/4 453/3/4 458/3/4
f 458/3/4 453/3/4 459/3/4
f 454/3/4 455/3/4 460/3/4
f 460/3/4 455/3/4 461/3/4
f 456/3/4 450/3/4 462/3/4
f 460/3/4 461/3/4 463/3/4
f 461/3/4 462/3/4 463/3/4
f 458/3/4 459/3/4 463/3/4
f 457/3/4 458/3/4 463/3/4
f 459/3/4 460/3/4 463/3/4
f 462/3/4 450/3/4 464/3/4
f 463/3/4 462/3/4 464/3/4
f 465/2/4 466/2/4 471/2/4
f 471/2/4 466/2/4 472/2/4
f 467/2/4 468/2/4 473/2/4
f 473/2/4 468/2/4 474/2/4
f 469/2/4 470/2/4 475/2/4
f 475/2/4 470/2/4 476/2/4
f 477/2/4 478/2/4 483/2/4
f 483/2/4 478/2/4 484/2/4
f 479/2/4 480/2/4 485/2/4
f 485/2/4 480/2/4 486/2/4
f 481/2/4 482/2/4 487/2/4
f 487/2/4 482/2/4 488/2/4
f 489/2/4 490/2/4 495/2/4
f 495/2/4 490/2/4 496/2/4
f 491/2/4 492/2/4 497/2/4
f 497/2/4 492/2/4 498/2/4
f 493/2/4 494/2/4 499/2/4
f 499/2/4 494/2/4 500/2/4
f 501/2/4 502/2/4 503/2/4
f 503/2/4 502/2/4 504/2/4
f 508/2/5 506/2/5 505/2/5
f 509/2/5 506/2/5 508/2/5
f 512/3/5 508/3/5 507/3/5
f 513/4/5 509/4/5 508/4/5
f 513/3/5 508/3/5 512/3/5
f 514/3/5 510/3/5 509/3/5
f 514/4/5 509/4/5 513/4/5
f 515/3/5 510/3/5 514/3/5
f 518/3/5 512/3/5 511/3/5
f 519/4/5 513/4/5 512/4/5
f 519/4/5 514/4/5 513/4/5
f 519/3/5 512/3/5 518/3/5
f 519/4/5 515/4/5 514/4/5
f 520/4/5 515/4/5 519/4/5
f 521/4/5 515/4/5 520/4/5
f 522/3/5 516/3/5 515/3/5
f 522/4/5 515/4/5 521/4/5
f 523/3/5 516/3/5 522/3/5
f 525/2/5 518/2/5 517/2/5
f 526/4/5 519/4/5 518/4/5
f 526/2/5 518/2/5 525/2/5
f 526/4/5 520/4/5 519/4/5
f 527/4/5 520/4/5 526/4/5
f 528/4/5 520/4/5 527/4/5
f 529/4/5 523/4/5 522/4/5
f 529/4/5 522/4/5 521/4/5
f 530/4/5 523/4/5 529/4/5
f 531/2/5 524/2/5 523/2/5
f 531/4/5 523/4/5 530/4/5
f 532/2/5 524/2/5 531/2/5
f 533/3/5 527/3/5 526/3/5
f 534/4/5 530/4/5 529/4/5
f 534/3/5 527/3/5 533/3/5
f 534/4/5 528/4/5 527/4/5
f 534/4/5 529/4/5 528/4/5
f 535/4/5 530/4/5 534/4/5
f 536/4/5 530/4/5 535/4/5
f 537/3/5 531/3/5 530/3/5
f 537/4/5 530/4/5 536/4/5
f 538/3/5 531/3/5 537/3/5
f 539/3/5 535/3/5 534/3/5
f 540/4/5 536/4/5 535/4/5
f 540/3/5 535/3/5 539/3/5
f 541/3/5 537/3/5 536/3/5
f 541/4/5 536/4/5 540/4/5
f 542/3/5 537/3/5 541/3/5
f 543/2/5 541/2/5 540/2/5
f 544/2/5 541/2/5 543/2/5
f 547/2/5 546/2/5 545/2/5
f 548/2/5 546/2/5 547/2/5
f 553/2/5 550/2/5 549/2/5
f 554/2/5 550/2/5 553/2/5
f 555/2/5 552/2/5 551/2/5
f 556/2/5 552/2/5 555/2/5
f 559/2/5 558/2/5 557/2/5
f 560/2/5 558/2/5 559/2/5
f 563/2/5 562/2/5 561/2/5
f 564/2/5 562/2/5 563/2/5
f 569/2/5 566/2/5 565/2/5
f 570/2/5 566/2/5 569/2/5
f 571/2/5 568/2/5 567/2/5
f 572/2/5 568/2/5 571/2/5
f 575/2/5 574/2/5 573/2/5
f 576/2/5 574/2/5 575/2/5
f 579/4/5 578/4/5 577/4/5
f 580/4/5 578/4/5 579/4/5
f 581/2/6 582/2/6 583/2/6
f 583/2/6 582/2/6 584/2/6
f 585/2/6 586/2/6 589/2/6
f 589/2/6 586/2/6 590/2/6
f 587/2/6 588/2/6 591/2/6
f 591/2/6 588/2/6 592/2/6
f 593/2/6 594/2/6 595/2/6
f 595/2/6 594/2/6 596/2/6
f 597/2/6 598/2/6 599/2/6
f 599/2/6 598/2/6 600/2/6
f 601/2/6 602/2/6 605/2/6
f 605/2/6 602/2/6 606/2/6
f 603/2/6 604/2/6 607/2/6
f 607/2/6 604/2/6 608/2/6
f 609/2/6 610/2/6 611/2/6
f 611/2/6 610/2/6 612/2/6
f 613/2/6 614/2/6 615/2/6
f 615/2/6 614/2/6 616/2/6
f 617/2/6 618/2/6 621/2/6
f 621/2/6 618/2/6 622/2/6
f 619/2/6 620/2/6 623/2/6
f 623/2/6 620/2/6 624/2/6
f 625/2/6 626/2/6 627/2/6
f 627/2/6 626/2/6 628/2/6
f 629/2/6 630/2/6 631/2/6
f 631/2/6 630/2/6 632/2/6
f 633/2/6 634/2/6 637/2/6
f 637/2/6 634/2/6 638/2/6
f 635/2/6 636/2/6 639/2/6
f 639/2/6 636/2/6 640/2/6
f 641/2/6 642/2/6 643/2/6
f 643/2/6 642/2/6 644/2/6
f 645/2/6 646/2/6 647/2/6
f 647/2/6 646/2/6 648/2/6
f 649/2/6 650/2/6 653/2/6
f 653/2/6 650/2/6 654/2/6
f 651/2/6 652/2/6 655/2/6
f 655/2/6 652/2/6 656/2/6
f 657/2/6 658/2/6 659/2/6
f 659/2/6 658/2/6 660/2/6
f 661/2/6 662/2/6 663/2/6
f 663/2/6 662/2/6 664/2/6
f 665/2/6 666/2/6 669/2/6
f 669/2/6 666/2/6 670/2/6
f 667/2/6 668/2/6 671/2/6
f 671/2/6 668/2/6 672/2/6
f 673/2/6 674/2/6 675/2/6
f 675/2/6 674/2/6 676/2/6
f 677/2/6 678/2/6 679/2/6
f 679/2/6 678/2/6 680/2/6
f 681/2/6 682/2/6 685/2/6
f 685/2/6 682/2/6 686/2/6
f 683/2/6 684/2/6 687/2/6
f 687/2/6 684/2/6 688/2/6
f 689/2/6 690/2/6 691/2/6
f 691/2/6 690/2/6 692/2/6
f 693/2/6 694/2/6 695/2/6
f 695/2/6 694/2/6 696/2/6
f 697/2/6 698/2/6 701/2/6
f 701/2/6 698/2/6 702/2/6
f 699/2/6 700/2/6 703/2/6
f 703/2/6 700/2/6 704/2/6
f 705/2/6 706/2/6 707/2/6
f 707/2/6 706/2/6 708/2/6
f 709/2/6 710/2/6 711/2/6
f 711/2/6 710/2/6 712/2/6
f 713/2/6 714/2/6 717/2/6
f 717/2/6 714/2/6 718/2/6
f 715/2/6 716/2/6 719/2/6
f 719/2/6 716/2/6 720/2/6
f 721/2/6 722/2/6 723/2/6
f 723/2/6 722/2/6 724/2/6
f 725/2/6 726/2/6 727/2/6
f 727/2/6 726/2/6 728/2/6
f 729/2/6 730/2/6 733/2/6
f 733/2/6 730/2/6 734/2/6
f 731/2/6 732/2/6 735/2/6
f 735/2/6 732/2/6 736/2/6
f 737/2/6 738/2/6 739/2/6
f 739/2/6 738/2/6 740/2/6
f 741/3/6 742/3/6 744/3/6
f 744/3/6 742/3/6 745/3/6
f 743/3/6 744/3/6 747/3/6
f 747/3/6 744/3/6 748/3/6
f 745/3/6 746/3/6 749/3/6
f 749/3/6 746/3/6 750/3/6
f 748/3/6 749/3/6 751/3/6
f 751/3/6 749/3/6 752/3/6
f 753/2/6 754/2/6 755/2/6
f 755/2/6 754/2/6 756/2/6
f 753/2/6 755/2/6 757/2/6
f 756/2/6 754/2/6 758/2/6
f 753/2/6 757/2/6 759/2/6
f 757/2/6 758/2/6 759/2/6
f 758/2/6 754/2/6 760/2/6
f 759/2/6 758/2/6 760/2/6
f 761/1/6 762/1/6 763/1/6
f 763/1/6 762/1/6 764/1/6
